<svg width="647" height="602" viewBox="0 0 647 602" fill="none" xmlns="http://www.w3.org/2000/svg">
<path opacity="0.3" d="M323.5 602C502.164 602 647 588.569 647 572C647 555.431 502.164 542 323.5 542C144.836 542 0 555.431 0 572C0 588.569 144.836 602 323.5 602Z" fill="#605CFF"/>
<path d="M509.787 268.44L502.52 269.553L510.929 324.46L518.196 323.347L509.787 268.44Z" fill="#788B9A"/>
<path d="M509.782 268.479L502.594 269.622L504.227 264.068L505.044 261.127L506.678 263.578L509.782 268.479Z" fill="#FF8C64"/>
<path d="M517.621 319.44L510.354 320.553L510.972 324.59L518.239 323.477L517.621 319.44Z" fill="#35252F"/>
<path d="M518.276 326.64L511.904 327.62C511.577 327.62 511.414 327.457 511.414 327.13L510.924 324.353L518.276 323.209L518.766 325.986C518.766 326.313 518.602 326.64 518.276 326.64Z" fill="#EF452F"/>
<path d="M506.677 263.578L504.227 264.068L505.043 261.127L506.677 263.578Z" fill="#35252F"/>
<path d="M510.373 320.554L517.641 319.441L517.195 316.535L509.928 317.648L510.373 320.554Z" fill="#F68407"/>
<path d="M504.717 272.073L510.925 312.753C510.925 313.08 511.252 313.243 511.578 313.243C511.905 313.243 512.069 312.916 512.069 312.59L505.86 271.91C505.86 271.583 505.534 271.42 505.207 271.42C504.88 271.42 504.717 271.747 504.717 272.073Z" fill="#788B9A"/>
<path d="M507.658 271.583L513.866 312.263C513.866 312.589 514.193 312.753 514.52 312.753C514.847 312.753 515.01 312.426 515.01 312.099L508.802 271.42C508.802 271.093 508.475 270.93 508.148 270.93C507.822 270.93 507.658 271.256 507.658 271.583Z" fill="#788B9A"/>
<path d="M522.928 268.63L515.576 268.654L515.757 324.201L523.109 324.177L522.928 268.63Z" fill="#2FE6A7"/>
<path d="M523.016 268.641L515.664 268.804L518.115 263.413L519.258 260.799L520.565 263.413L523.016 268.641Z" fill="#FF8C64"/>
<path d="M523.174 320.255L515.822 320.279L515.836 324.364L523.187 324.34L523.174 320.255Z" fill="#35252F"/>
<path d="M522.69 327.455H516.318C515.991 327.455 515.828 327.292 515.828 326.965V324.188H523.18V326.965C523.18 327.292 523.016 327.455 522.69 327.455Z" fill="#EF452F"/>
<path d="M520.566 263.415H518.115L519.259 260.801L520.566 263.415Z" fill="#35252F"/>
<path d="M515.82 320.282L523.172 320.258L523.162 317.317L515.811 317.341L515.82 320.282Z" fill="#3C7341"/>
<path d="M517.459 271.418L517.622 312.588C517.622 312.914 517.949 313.078 518.112 313.078C518.439 313.078 518.603 312.751 518.603 312.588L518.439 271.418C518.439 271.091 518.112 270.928 517.949 270.928C517.786 270.928 517.459 271.091 517.459 271.418Z" fill="#2FE6A7"/>
<path d="M520.402 271.42L520.566 312.589C520.566 312.916 520.892 313.08 521.056 313.08C521.383 313.08 521.546 312.753 521.546 312.589L521.383 271.42C521.383 271.093 521.056 270.93 520.892 270.93C520.566 270.93 520.402 271.093 520.402 271.42Z" fill="#2FE6A7"/>
<path d="M535.73 269.476L528.451 268.441L520.636 323.438L527.915 324.472L535.73 269.476Z" fill="#605CFF"/>
<path d="M535.758 269.459L528.406 268.479L531.51 263.578L533.144 261.127L534.124 263.904L535.758 269.459Z" fill="#FF8C64"/>
<path d="M528.509 320.523L521.23 319.488L520.656 323.532L527.935 324.567L528.509 320.523Z" fill="#35252F"/>
<path d="M526.936 327.619L520.564 326.639C520.238 326.639 520.074 326.312 520.074 326.148L520.401 323.371L527.753 324.351L527.426 327.129C527.426 327.455 527.263 327.619 526.936 327.619Z" fill="#EF452F"/>
<path d="M534.124 263.904L531.51 263.578L533.143 261.127L534.124 263.904Z" fill="#35252F"/>
<path d="M521.182 319.372L528.461 320.406L528.875 317.495L521.596 316.46L521.182 319.372Z" fill="#1B48CA"/>
<path opacity="0.6" d="M529.876 271.42L524.158 312.099C524.158 312.426 524.322 312.753 524.648 312.753C524.975 312.753 525.302 312.589 525.302 312.263L531.02 271.583C531.02 271.256 530.856 270.93 530.53 270.93C530.203 270.93 529.876 271.093 529.876 271.42Z" fill="#605CFF"/>
<path opacity="0.6" d="M532.654 271.911L526.936 312.59C526.936 312.917 527.099 313.244 527.426 313.244C527.752 313.244 528.079 313.08 528.079 312.753L533.797 272.074C533.797 271.747 533.634 271.42 533.307 271.42C532.98 271.257 532.817 271.584 532.654 271.911Z" fill="#605CFF"/>
<path d="M538.21 290.697L537.72 293.638L537.393 296.415L536.903 300.5L536.577 303.114L535.923 307.361L535.596 309.975L535.106 314.059L534.78 316.673L534.289 320.921L533.963 323.535L533.309 327.783L532.982 330.233L532.656 332.52H503.739L503.412 330.233L503.085 327.783L502.595 323.535L502.269 320.921L501.778 316.673L501.452 314.059L500.798 309.975L500.471 307.361L499.981 303.114L499.655 300.5L499.165 296.415L498.838 293.638L498.348 290.697H538.21Z" fill="#FF69B4"/>
<path d="M537.718 293.637L537.392 296.414H499.163L498.836 293.637H537.718Z" fill="#FF69B4"/>
<path d="M536.903 300.498L536.576 303.112H499.981L499.654 300.498H536.903Z" fill="#FF69B4"/>
<path d="M535.922 307.359L535.596 309.973H500.797L500.471 307.359H535.922Z" fill="#FF69B4"/>
<path d="M535.104 314.059L534.777 316.673H501.776L501.449 314.059H535.104Z" fill="#FF69B4"/>
<path d="M534.286 320.92L533.96 323.534H502.592L502.266 320.92H534.286Z" fill="#FF69B4"/>
<path d="M533.306 327.781L532.979 330.232H503.409L503.082 327.781H533.306Z" fill="#FF69B4"/>
<path opacity="0.2" d="M212.965 99.1668C238.68 99.1668 259.526 78.3208 259.526 52.6059C259.526 26.891 238.68 6.04492 212.965 6.04492C187.25 6.04492 166.404 26.891 166.404 52.6059C166.404 78.3208 187.25 99.1668 212.965 99.1668Z" fill="#605CFF"/>
<path d="M212.965 93.1219C238.68 93.1219 259.526 72.2759 259.526 46.561C259.526 20.846 238.68 0 212.965 0C187.25 0 166.404 20.846 166.404 46.561C166.404 72.2759 187.25 93.1219 212.965 93.1219Z" fill="#605CFF"/>
<path d="M212.964 84.4627C233.875 84.4627 250.866 67.472 250.866 46.5604C250.866 25.6489 233.875 8.6582 212.964 8.6582C192.052 8.6582 175.062 25.6489 175.062 46.5604C175.062 67.472 192.052 84.4627 212.964 84.4627Z" fill="white"/>
<path opacity="0.2" d="M175.062 46.5605C175.062 47.5407 175.062 48.5209 175.225 49.5011C176.695 30.0599 193.196 14.5396 212.964 14.5396C232.895 14.5396 249.232 29.8965 250.703 49.5011C250.703 48.5209 250.866 47.5407 250.866 46.5605C250.866 25.6489 233.875 8.6582 212.964 8.6582C192.052 8.6582 175.062 25.6489 175.062 46.5605Z" fill="#605CFF"/>
<path d="M212.965 50.4815C213.292 50.4815 213.619 50.3182 213.782 50.1548L232.407 25.1589C232.733 24.6688 232.57 24.1787 232.243 23.8519C231.753 23.5252 231.263 23.6886 230.936 24.0153L212.802 48.5211L192.054 39.3723C191.564 39.2089 191.074 39.3722 190.747 39.8624C190.583 40.3525 190.747 40.8426 191.237 41.1693L212.475 50.4815C212.639 50.4815 212.802 50.4815 212.965 50.4815Z" fill="#222131"/>
<path d="M492.164 301.608L453.268 433.05C451.479 438.863 446.114 442.886 440.153 442.886L282.183 443.333C273.838 443.333 267.131 436.329 267.578 427.983C268.025 420.234 274.434 414.124 282.183 414.124H342.54L390.974 279.402H475.473C487.097 279.402 495.442 290.579 492.164 301.608Z" fill="#788B9A"/>
<path d="M394.402 425.599C374.566 425.599 358.486 425.332 358.486 425.002C358.486 424.673 374.566 424.406 394.402 424.406C414.237 424.406 430.317 424.673 430.317 425.002C430.317 425.332 414.237 425.599 394.402 425.599Z" fill="#222131"/>
<path d="M480.539 283.575C480.241 283.426 469.511 314.871 456.545 353.916C443.58 392.812 433.297 424.406 433.595 424.555C433.893 424.704 444.623 393.259 457.588 354.214C470.554 315.318 480.837 283.575 480.539 283.575Z" fill="#222131"/>
<path d="M365.044 559.725L374.73 559.427V442.887H365.044V559.725Z" fill="#FFD66B"/>
<path d="M414.669 559.128H325.103L365.639 545.119H375.326L414.669 559.128Z" fill="#FFD66B"/>
<path d="M437.323 249.148L422.569 323.215L425.252 378.802L325.552 362.26L329.427 313.677L329.576 273.439L305.135 320.83L286.06 284.02L320.932 220.981C327.34 214.424 334.792 209.506 343.734 206.227C348.055 204.588 352.675 203.694 358.04 203.545C369.515 207.122 380.991 207.122 392.615 203.545C393.956 203.694 395.893 203.843 398.427 204.141C398.576 204.141 398.725 204.141 398.874 204.141C420.036 206.675 436.131 224.26 437.323 245.571V249.148Z" fill="#FF69B4"/>
<path d="M398.278 204.141C398.278 204.141 439.261 204.439 444.328 247.657L445.073 279.4L409.754 279.102L398.278 204.141Z" fill="#FF69B4"/>
<path d="M300.366 259.729C300.366 260.027 332.556 260.325 372.347 260.325C412.137 260.325 444.327 260.027 444.327 259.729C444.327 259.431 412.137 259.133 372.347 259.133C332.556 259.133 300.366 259.431 300.366 259.729Z" fill="white"/>
<path d="M300.366 266.584C300.366 266.882 332.556 267.18 372.347 267.18C412.137 267.18 444.327 266.882 444.327 266.584C444.327 266.286 412.137 265.988 372.347 265.988C332.556 265.988 300.366 266.286 300.366 266.584Z" fill="white"/>
<path d="M302.75 254.067C302.75 254.365 334.493 254.663 373.539 254.663C412.584 254.663 444.327 254.365 444.327 254.067C444.327 253.769 412.584 253.471 373.539 253.471C334.344 253.471 302.75 253.769 302.75 254.067Z" fill="white"/>
<path d="M330.024 320.832C330.322 320.832 330.173 303.247 329.726 281.638C329.279 260.029 328.682 242.443 328.235 242.443C327.937 242.443 328.086 260.029 328.533 281.638C329.129 303.247 329.726 320.832 330.024 320.832Z" fill="#222131"/>
<path d="M344.031 292.367C344.031 292.367 324.658 293.708 321.23 298.924C317.802 303.991 312.437 318.596 314.375 318.745C316.461 318.894 317.802 317.702 317.802 317.702L323.167 308.313C323.167 308.313 322.273 317.404 325.552 317.553C328.682 317.702 344.479 320.832 344.479 320.832L344.031 292.367Z" fill="#FFBE9D"/>
<path d="M444.924 270.906V320.831C444.328 332.455 433.3 340.801 421.973 338.416L343.883 322.321L344.032 290.28L411.392 303.245L412.287 269.416L444.924 270.906Z" fill="#FF69B4"/>
<path d="M400.364 334.392C400.364 334.392 400.066 334.243 399.321 334.094C398.576 333.945 397.533 333.647 396.34 333.349C393.658 332.753 389.783 332.008 384.865 330.965C374.88 328.878 360.872 326.047 344.18 322.619L344.628 323.066C344.628 313.081 344.628 301.904 344.628 290.131L344.031 290.727C348.502 291.621 353.122 292.515 357.742 293.41C377.414 297.135 395.893 300.712 411.392 303.693L411.988 303.842V303.246C411.541 288.343 411.094 275.973 410.796 267.181C410.647 262.859 410.498 259.58 410.349 257.196C410.349 256.153 410.2 255.258 410.2 254.513C410.2 253.917 410.051 253.619 410.051 253.619C410.051 253.619 410.051 253.917 410.051 254.513C410.051 255.258 410.051 256.004 410.051 257.196C410.051 259.58 410.2 263.008 410.2 267.33C410.349 276.122 410.647 288.492 411.094 303.395L411.69 302.947C396.191 299.967 377.712 296.39 358.04 292.515C353.271 291.621 348.651 290.727 344.329 289.833L343.733 289.684V290.28C343.733 302.053 343.733 313.081 343.733 323.215V323.662L344.18 323.811C360.872 327.09 374.88 329.773 384.865 331.71C389.783 332.604 393.658 333.349 396.34 333.796C397.682 333.945 398.576 334.243 399.47 334.392C400.066 334.392 400.364 334.392 400.364 334.392Z" fill="#222131"/>
<path d="M355.506 204.142C355.506 204.142 355.357 204.44 355.208 204.887C355.059 205.334 354.761 206.079 354.612 207.122C354.165 209.06 354.016 212.04 354.91 215.468C355.804 218.896 358.189 222.77 361.617 225.9C365.193 229.179 370.26 231.265 375.774 231.265C381.288 231.265 386.504 229.03 389.783 225.602C393.061 222.174 394.552 217.853 394.999 214.276C395.446 210.699 394.701 207.719 393.956 205.93C393.658 205.036 393.21 204.291 392.912 203.844C392.614 203.397 392.465 203.099 392.465 203.248C392.316 203.248 392.912 204.291 393.509 206.079C394.105 207.868 394.552 210.699 394.105 214.127C393.658 217.554 392.167 221.578 388.889 224.857C385.759 228.135 380.841 230.222 375.625 230.222C370.409 230.222 365.491 228.284 362.064 225.155C358.636 222.174 356.4 218.598 355.357 215.17C354.314 211.891 354.463 208.911 354.612 207.122C355.357 205.185 355.655 204.142 355.506 204.142Z" fill="#263238"/>
<path d="M351.78 324.855C351.929 324.855 351.929 322.918 351.78 319.937C351.631 316.956 351.482 312.784 351.482 308.164C351.482 303.544 351.482 299.371 351.631 296.391C351.78 293.41 351.78 291.473 351.631 291.473C351.482 291.473 351.184 293.261 350.886 296.391C350.588 299.371 350.439 303.693 350.439 308.313C350.439 312.933 350.737 317.106 351.035 320.235C351.333 323.067 351.631 325.004 351.78 324.855Z" fill="#FAFAFA"/>
<path d="M355.805 325.749C355.954 325.749 355.954 323.812 355.954 320.832C355.954 317.404 355.805 313.38 355.805 309.058C355.805 304.737 355.805 300.713 355.805 297.285C355.805 294.305 355.805 292.367 355.656 292.367C355.507 292.367 355.209 294.156 355.06 297.285C354.911 300.266 354.762 304.438 354.762 309.058C354.762 313.678 354.911 317.851 355.209 320.832C355.358 323.961 355.656 325.749 355.805 325.749Z" fill="#FAFAFA"/>
<path d="M277.563 524.105L262.809 564.79L241.797 593.553C240.306 595.639 240.902 598.62 242.989 599.961C244.181 600.706 245.671 600.855 247.013 600.259C255.507 596.682 286.505 583.717 287.399 580.736C288.442 577.16 308.412 533.494 308.412 533.494L277.563 524.105Z" fill="#FF69B4"/>
<g opacity="0.6">
<g opacity="0.6">
<path d="M243.138 599.962L288.592 578.055L287.996 579.694C287.4 581.184 286.356 582.376 285.015 583.122C281.289 585.059 270.857 590.424 247.46 600.26C245.97 600.856 244.33 600.707 243.138 599.962Z" fill="#93079F"/>
</g>
</g>
<g opacity="0.6">
<g opacity="0.6">
<g opacity="0.6">
<path opacity="0.6" d="M285.462 561.811C284.121 562.109 283.226 563.45 283.524 564.792C283.822 566.133 285.164 567.027 286.505 566.729C287.846 566.431 288.889 564.791 288.591 563.599C288.144 562.407 286.505 561.364 285.313 561.96" fill="white"/>
</g>
</g>
</g>
<path d="M259.233 585.952C258.935 585.952 258.935 583.568 256.848 581.482C254.911 579.395 252.526 579.097 252.526 578.799C252.526 578.65 253.122 578.501 254.166 578.799C255.209 579.097 256.401 579.693 257.593 580.885C258.636 582.078 259.233 583.419 259.382 584.462C259.531 585.356 259.382 585.952 259.233 585.952Z" fill="#222131"/>
<path d="M254.167 590.274C253.869 590.423 253.124 588.485 251.335 587.144C249.547 585.654 247.609 585.356 247.609 585.058C247.609 584.76 249.845 584.76 251.931 586.399C254.018 587.889 254.465 590.125 254.167 590.274Z" fill="#222131"/>
<path d="M267.281 581.034C266.983 581.183 265.791 578.352 263.108 575.967C260.426 573.434 257.594 572.54 257.743 572.242C257.743 571.944 261.022 572.54 263.853 575.222C266.685 577.905 267.43 581.034 267.281 581.034Z" fill="#222131"/>
<path d="M272.794 569.112C272.645 569.261 270.708 567.473 267.876 566.28C265.045 564.939 262.511 564.79 262.511 564.641C262.511 564.343 265.194 564.194 268.324 565.535C271.304 566.728 272.943 568.963 272.794 569.112Z" fill="#222131"/>
<path d="M277.415 557.339C277.266 557.488 275.478 555.252 272.348 554.209C269.218 553.017 266.536 553.762 266.536 553.464C266.536 553.315 267.132 553.017 268.324 552.868C269.517 552.719 271.156 552.719 272.795 553.315C274.434 553.911 275.776 554.805 276.521 555.699C277.266 556.594 277.415 557.19 277.415 557.339Z" fill="#222131"/>
<path d="M273.241 551.974C273.241 551.974 273.241 551.378 273.837 550.484C274.285 549.59 275.179 548.249 276.669 546.907C277.414 546.311 278.159 545.566 279.5 545.417C280.097 545.417 280.991 545.864 281.289 546.46C281.587 547.205 281.438 547.95 281.289 548.547C280.246 551.08 277.116 552.719 274.135 551.974C271.155 551.229 269.218 548.547 268.919 545.864C268.919 545.268 268.919 544.374 269.516 543.927C270.112 543.331 271.006 543.331 271.602 543.778C272.794 544.374 273.241 545.417 273.688 546.162C274.583 547.801 275.03 549.292 275.179 550.335C275.328 551.378 275.328 551.974 275.328 551.974C275.179 551.974 275.03 549.59 273.092 546.46C272.645 545.715 272.049 544.821 271.155 544.374C270.708 544.225 270.261 544.225 270.112 544.523C269.814 544.821 269.665 545.268 269.814 545.864C270.112 548.099 271.9 550.484 274.434 551.08C276.967 551.676 279.799 550.335 280.544 548.249C280.693 547.801 280.842 547.205 280.693 546.758C280.544 546.311 280.246 546.162 279.799 546.162C278.904 546.162 278.01 546.758 277.265 547.354C274.135 549.739 273.39 552.123 273.241 551.974Z" fill="#222131"/>
<path d="M215.269 513.524L216.611 546.608C216.611 546.608 183.526 558.978 183.079 565.088L247.162 564.939L247.311 513.375L215.269 513.524Z" fill="#FF69B4"/>
<g opacity="0.6">
<g opacity="0.6">
<path opacity="0.6" d="M236.43 543.777C237.623 544.075 238.517 545.565 238.219 546.758C237.921 547.95 236.579 548.844 235.238 548.546C234.046 548.248 232.854 546.609 233.301 545.416C233.748 544.224 235.387 543.181 236.579 543.926" fill="white"/>
</g>
</g>
<g opacity="0.6">
<path d="M247.162 564.938V559.871L185.464 561.958C185.464 561.958 182.633 563.15 182.931 565.236L247.162 564.938Z" fill="#93079F"/>
</g>
<path d="M215.568 546.31C215.568 546.608 217.207 546.757 218.697 547.8C220.336 548.695 221.082 550.185 221.38 550.036C221.678 550.036 221.231 548.099 219.293 546.906C217.356 545.565 215.419 546.012 215.568 546.31Z" fill="#222131"/>
<path d="M208.86 548.993C208.86 549.291 210.202 549.887 211.245 551.08C212.288 552.421 212.586 553.762 212.884 553.762C213.182 553.762 213.331 551.974 211.99 550.335C210.649 548.844 208.86 548.695 208.86 548.993Z" fill="#222131"/>
<path d="M204.986 557.04C205.284 557.04 205.731 555.55 204.837 553.761C204.092 551.973 202.602 551.377 202.453 551.675C202.303 551.973 203.198 552.867 203.943 554.208C204.539 555.699 204.688 557.04 204.986 557.04Z" fill="#222131"/>
<path d="M216.015 538.709C216.164 539.008 217.654 538.56 219.293 538.709C221.081 538.859 222.423 539.306 222.572 539.157C222.721 538.858 221.38 537.815 219.293 537.666C217.356 537.368 215.865 538.411 216.015 538.709Z" fill="#263238"/>
<g opacity="0.3">
<path opacity="0.3" d="M215.568 520.08L215.717 525.892L247.311 525.594V520.229L215.568 520.08Z" fill="black"/>
</g>
<path d="M215.865 532.003C215.865 532.152 217.057 532.301 219.144 532.003C220.187 531.854 221.23 531.556 222.571 530.96C223.167 530.662 223.764 530.364 224.36 529.917C224.658 529.768 224.956 529.47 225.254 529.172C225.552 528.874 225.85 527.979 225.403 527.532C225.105 527.085 224.509 526.787 224.062 526.787C223.615 526.787 223.167 526.936 222.869 526.936C222.124 527.085 221.528 527.383 220.932 527.681C219.74 528.277 218.697 529.023 217.951 529.619C216.461 530.96 216.014 532.152 216.014 532.301C216.163 532.45 216.908 531.407 218.399 530.215C219.144 529.619 220.187 529.023 221.23 528.575C221.826 528.277 222.422 528.128 223.018 527.979C223.764 527.83 224.211 527.83 224.509 528.128C224.509 528.277 224.509 528.277 224.509 528.426C224.36 528.575 224.062 528.724 223.764 529.023C223.167 529.321 222.571 529.768 222.124 530.066C221.081 530.662 219.889 530.96 218.995 531.258C217.206 531.705 215.865 531.854 215.865 532.003Z" fill="#263238"/>
<path d="M216.312 532.451C216.461 532.451 217.057 531.408 217.206 529.321C217.206 528.278 217.206 527.086 216.759 525.745C216.61 525.149 216.312 524.403 215.865 523.807C215.418 523.211 214.971 522.317 213.778 522.168C213.182 522.168 212.586 522.615 212.437 523.062C212.288 523.509 212.139 523.807 212.139 524.254C211.99 524.999 211.99 525.745 212.139 526.49C212.288 527.831 212.884 529.023 213.48 529.768C214.673 531.408 216.014 531.855 216.014 531.706C216.163 531.557 214.971 530.961 214.076 529.321C213.629 528.576 213.182 527.533 213.033 526.341C213.033 525.745 213.033 525.149 213.033 524.552C213.182 523.807 213.331 523.36 213.629 523.36C213.927 523.36 214.524 523.807 214.822 524.403C215.12 525 215.418 525.596 215.567 526.192C216.014 527.384 216.163 528.427 216.163 529.321C216.461 531.259 216.163 532.451 216.312 532.451Z" fill="#263238"/>
<path d="M247.31 355.109C285.163 358.984 335.386 364.2 335.386 364.2L328.53 425.898C328.53 425.898 254.761 406.375 255.209 408.014C255.805 409.654 251.781 539.308 251.781 539.308H207.371L206.476 392.515C206.327 370.31 225.254 352.874 247.31 355.109Z" fill="#222131"/>
<path d="M426.145 379.996V399.071C426.145 412.037 411.242 425.897 398.276 425.897H388.142C380.244 425.897 367.725 420.084 361.317 415.465L357.443 412.633L311.095 555.998C311.095 555.998 258.19 546.46 258.19 544.821C258.19 543.182 294.106 427.387 310.648 373.588C317.354 351.68 340.9 338.864 362.659 346.315C363.404 346.614 364.149 346.912 364.894 347.21C388.589 356.896 426.145 379.996 426.145 379.996Z" fill="#222131"/>
<path d="M258.34 544.969C258.34 544.969 258.489 544.82 258.638 544.522C258.787 544.075 258.936 543.628 259.234 543.032C259.681 541.691 260.426 539.753 261.32 537.071C263.108 531.855 265.493 524.404 268.473 515.015C274.435 496.386 282.333 470.455 290.977 441.842C295.299 427.535 299.322 413.825 303.048 401.455C304.836 395.196 306.625 389.384 308.264 383.87C309.158 381.038 309.903 378.505 310.648 375.822C311.394 373.289 312.139 370.755 313.033 368.52C314.821 364.049 317.653 360.621 320.484 357.939C323.316 355.256 325.998 353.319 328.383 351.829C330.618 350.339 332.407 349.146 333.748 348.401C334.344 348.103 334.791 347.805 335.089 347.507C335.387 347.358 335.536 347.209 335.536 347.209C335.536 347.209 335.387 347.209 335.089 347.507C334.642 347.656 334.195 347.954 333.599 348.252C332.258 348.997 330.469 350.041 328.234 351.531C325.849 353.021 323.167 354.958 320.186 357.492C317.355 360.174 314.374 363.602 312.437 368.222C311.394 370.457 310.648 372.991 309.903 375.524C309.158 378.058 308.264 380.74 307.519 383.423C305.88 388.937 304.091 394.898 302.154 401.008C298.428 413.378 294.255 427.088 289.933 441.395C281.29 470.008 273.54 495.79 267.877 514.717C265.046 523.956 262.661 531.557 261.022 536.922C260.277 539.455 259.532 541.542 259.085 542.883C258.936 543.479 258.787 544.075 258.638 544.522C258.34 544.671 258.34 544.969 258.34 544.969Z" fill="#455A64"/>
<path d="M247.162 389.533C246.864 389.682 249.398 393.557 251.484 398.624C253.57 403.691 254.465 408.161 254.912 408.161C255.21 408.161 254.763 403.542 252.527 398.177C250.292 392.812 247.311 389.235 247.162 389.533Z" fill="#455A64"/>
<path d="M238.667 395.493C238.518 395.791 242.393 397.431 246.268 400.56C250.291 403.69 252.825 406.969 253.123 406.82C253.421 406.67 251.186 402.945 247.013 399.666C242.84 396.387 238.667 395.195 238.667 395.493Z" fill="#455A64"/>
<path d="M310.797 556.148C311.095 556.297 323.614 517.847 338.666 470.456C353.866 423.066 365.789 384.467 365.491 384.467C365.193 384.318 352.674 422.767 337.622 470.158C322.571 517.549 310.499 555.999 310.797 556.148Z" fill="#455A64"/>
<path d="M367.576 332.455L216.014 333.946L187.848 254.066L297.98 254.812L323.613 326.643L367.576 327.239V332.455Z" fill="#788B9A"/>
<path d="M251.782 300.863C248.408 300.863 245.672 298.127 245.672 294.753C245.672 291.378 248.408 288.643 251.782 288.643C255.157 288.643 257.893 291.378 257.893 294.753C257.893 298.127 255.157 300.863 251.782 300.863Z" fill="white"/>
<path d="M379.944 116.364C378.454 110.999 374.579 108.466 369.363 106.677C364.147 104.889 358.037 105.932 353.715 109.211C350.734 111.446 348.499 114.725 345.071 115.917C339.408 117.855 332.702 113.682 327.188 116.215C323.909 117.706 322.121 121.729 322.866 125.157C323.76 128.585 327.188 131.267 330.765 131.118C327.039 132.459 325.847 137.824 328.082 141.103C330.318 144.382 334.788 145.723 338.663 144.978C342.538 144.233 345.966 141.848 348.946 139.166C351.927 136.483 354.609 133.503 357.739 131.118C360.868 128.734 364.743 126.945 368.767 127.094C374.132 127.392 378.752 131.416 381.136 136.185C383.521 140.954 384.117 146.468 384.415 151.833C384.713 157.198 384.862 162.712 386.352 167.779C386.501 168.375 386.799 169.12 387.395 169.269C388.29 169.567 389.035 168.673 389.482 167.779C394.4 158.688 397.529 148.703 398.573 138.42C399.169 132.459 399.02 126.796 395.741 121.878C392.313 116.811 383.968 113.086 379.944 116.364Z" fill="#222131"/>
<path d="M390.376 141.252L393.058 201.608C393.505 211.891 392.164 227.092 375.92 227.092C361.762 226.049 357.589 212.785 357.291 203.247C357.142 198.776 356.844 194.902 356.844 194.455C356.844 194.455 341.494 193.71 339.557 178.509C338.663 171.206 338.067 156.005 337.769 142.146C337.322 127.392 348.499 114.725 363.104 113.234L364.594 113.085C380.54 112.34 389.929 125.306 390.376 141.252Z" fill="#FFAA8C"/>
<path d="M356.694 194.158C356.694 194.158 366.381 193.86 375.919 186.408C375.919 186.408 372.342 197.883 357.141 198.032L356.694 194.158Z" fill="#EB996E"/>
<path d="M343.28 151.832C343.429 153.024 344.472 153.918 345.665 153.769C346.857 153.769 347.751 152.726 347.751 151.534C347.602 150.341 346.559 149.447 345.367 149.596C344.025 149.745 343.131 150.64 343.28 151.832Z" fill="#263238"/>
<path d="M341.79 149.298C342.088 149.596 343.578 148.105 345.963 147.956C348.347 147.658 350.136 148.702 350.285 148.404C350.434 148.254 350.136 147.807 349.242 147.36C348.496 146.913 347.155 146.466 345.665 146.615C344.175 146.764 342.982 147.509 342.386 148.105C341.79 148.553 341.641 149.149 341.79 149.298Z" fill="#263238"/>
<path d="M366.231 150.191C366.38 151.383 367.424 152.278 368.616 152.128C369.808 152.128 370.702 151.085 370.702 149.893C370.553 148.701 369.51 147.807 368.318 147.956C366.976 148.105 366.082 148.999 366.231 150.191Z" fill="#263238"/>
<path d="M364.742 147.212C365.04 147.51 366.531 146.02 368.915 145.87C371.299 145.572 373.088 146.616 373.237 146.318C373.386 146.169 373.088 145.721 372.194 145.274C371.449 144.827 370.107 144.38 368.617 144.529C367.127 144.678 365.934 145.423 365.338 146.02C364.742 146.616 364.593 147.063 364.742 147.212Z" fill="#263238"/>
<path d="M358.185 165.392C358.185 165.243 356.694 165.094 354.31 165.094C353.714 165.094 353.118 165.094 352.969 164.647C352.82 164.2 352.969 163.603 353.118 162.858C353.565 161.368 354.012 159.729 354.459 158.089C356.247 151.383 357.439 145.869 357.141 145.869C356.843 145.869 355.204 151.234 353.416 157.94C352.969 159.58 352.521 161.219 352.223 162.709C352.074 163.454 351.776 164.2 352.223 165.094C352.372 165.541 352.969 165.839 353.267 165.839C353.714 165.988 354.012 165.839 354.31 165.839C356.694 165.69 358.185 165.541 358.185 165.392Z" fill="#263238"/>
<path d="M365.189 166.287C364.742 166.287 365.04 168.821 363.103 170.907C361.165 172.993 358.334 172.993 358.483 173.291C358.483 173.44 359.079 173.739 360.271 173.59C361.463 173.44 362.954 172.993 364.146 171.801C365.338 170.609 365.785 168.97 365.785 167.926C365.636 166.883 365.338 166.287 365.189 166.287Z" fill="#263238"/>
<path d="M363.103 138.122C363.401 138.718 365.637 138.122 368.468 138.271C371.3 138.271 373.535 138.867 373.833 138.271C373.982 137.973 373.535 137.376 372.492 136.929C371.598 136.482 370.108 136.035 368.468 136.035C366.829 136.035 365.339 136.482 364.445 136.929C363.55 137.376 363.103 137.823 363.103 138.122Z" fill="#263238"/>
<path d="M341.941 142.443C342.388 142.89 344.027 142.144 345.816 141.995C347.753 141.697 349.392 141.995 349.69 141.399C349.839 141.101 349.541 140.654 348.796 140.207C348.051 139.76 346.859 139.462 345.517 139.611C344.176 139.76 343.133 140.356 342.537 140.952C341.941 141.548 341.792 142.145 341.941 142.443Z" fill="#263238"/>
<path d="M390.227 152.579C390.525 152.43 400.361 148.406 401.106 158.838C401.851 169.27 391.27 167.929 391.27 167.631C391.27 167.184 390.227 152.579 390.227 152.579Z" fill="#FFBE9D"/>
<path d="M394.101 163.31C394.101 163.31 394.251 163.459 394.549 163.608C394.847 163.757 395.443 163.757 395.89 163.608C396.933 163.161 397.827 161.372 397.678 159.435C397.678 158.541 397.38 157.647 396.933 156.902C396.486 156.156 396.039 155.709 395.443 155.56C394.847 155.411 394.549 155.858 394.4 156.156C394.251 156.455 394.4 156.604 394.251 156.753C394.251 156.753 393.952 156.604 394.101 156.156C394.101 156.007 394.251 155.709 394.4 155.411C394.698 155.262 394.996 155.113 395.443 155.113C396.188 155.113 397.082 155.858 397.529 156.604C397.976 157.349 398.274 158.392 398.423 159.435C398.572 161.522 397.529 163.608 396.188 164.055C395.443 164.353 394.847 164.055 394.549 163.906C394.251 163.608 394.101 163.459 394.101 163.31Z" fill="#EB996E"/>
<path d="M334.192 139.316C341.047 140.359 348.35 137.825 353.119 132.907C356.546 129.331 358.782 124.562 363.253 122.624C366.233 121.283 369.81 121.581 372.79 122.922C375.771 124.264 378.304 126.35 380.689 128.735C378.603 136.782 381.434 145.128 384.266 152.877C384.564 153.771 385.011 154.665 385.756 155.113C387.097 155.858 388.885 154.964 389.78 153.771C391.27 151.834 391.717 149.151 391.866 146.767C392.313 141.104 391.866 135.292 389.929 129.927C388.14 124.562 384.862 119.644 380.391 116.067C374.728 111.745 367.425 109.957 360.272 110.851C353.119 111.745 346.561 115.024 341.495 119.942C339.11 122.177 336.875 124.86 335.98 127.989" fill="#222131"/>
<path d="M540.599 477.114C535.234 474.431 528.975 473.984 523.162 475.027C520.033 475.623 516.754 476.517 514.519 478.902C512.432 481.286 511.985 485.459 514.37 487.546C515.86 488.738 517.946 488.887 519.884 488.887C524.504 488.887 529.571 487.993 533.296 490.824C535.383 492.463 536.873 494.997 539.258 495.891C541.791 496.636 544.473 495.146 545.815 492.911C547.156 490.675 547.156 487.844 546.56 485.459C546.709 485.31 545.964 479.796 540.599 477.114Z" fill="#2FE6A7"/>
<path d="M552.818 453.567C549.54 458.187 543.281 456.697 540.3 453.866C537.32 451.034 536.127 446.861 534.935 442.986C532.402 434.045 529.719 424.656 531.656 415.565C532.253 412.883 533.296 410.2 535.233 408.114C537.17 406.027 540.151 404.835 542.834 405.58C545.963 406.475 548.05 409.604 549.391 412.436C553.564 421.228 555.799 430.766 555.799 440.453C555.948 445.073 555.352 449.842 552.818 453.567Z" fill="#2FE6A7"/>
<path d="M561.76 460.274C558.183 456.101 557.587 449.991 559.077 444.775C560.717 439.559 564.144 435.089 568.317 431.363C573.086 427.041 578.749 423.762 584.859 421.676C587.244 420.782 589.777 420.186 592.311 420.484C594.844 420.782 597.378 421.974 598.57 424.209C600.358 427.488 598.57 431.512 596.781 434.79C593.652 440.603 589.926 446.117 585.902 451.333C582.624 455.505 578.898 459.678 573.98 461.467C569.062 463.404 563.846 463.106 561.313 459.678" fill="#2FE6A7"/>
<path d="M553.117 523.61C553.117 523.61 552.968 522.865 552.819 521.524C552.67 520.034 552.521 518.096 552.223 515.712C551.925 513.327 551.627 510.347 550.882 507.217C550.286 504.088 549.093 500.66 547.752 497.232C546.411 493.805 544.623 490.675 542.685 488.291C540.748 485.757 538.363 483.969 536.277 482.926C534.191 481.882 532.253 481.435 530.912 481.286C529.571 481.137 528.826 480.988 528.826 480.988C528.826 480.988 529.571 480.988 530.912 480.988C532.253 481.137 534.34 481.435 536.575 482.479C538.81 483.522 541.344 485.31 543.43 487.844C545.517 490.377 547.305 493.507 548.646 497.083C549.988 500.511 551.031 503.939 551.627 507.217C552.223 510.347 552.521 513.327 552.819 515.712C552.968 518.096 553.117 520.183 553.117 521.524C553.117 522.865 553.117 523.61 553.117 523.61Z" fill="#222131"/>
<path d="M552.67 519.141C552.67 519.141 552.67 518.842 552.67 518.097C552.67 517.352 552.67 516.458 552.67 515.266C552.67 512.881 552.67 509.305 552.521 504.983C552.372 496.339 551.627 486.95 550.137 473.836C548.795 461.467 547.007 447.011 545.07 437.622C544.623 435.536 544.175 433.598 543.877 431.959C543.43 430.32 543.132 428.829 542.834 427.637C542.536 426.594 542.387 425.7 542.238 424.955C542.089 424.359 542.089 424.061 542.089 424.061C542.089 424.061 542.238 424.359 542.387 424.955C542.536 425.7 542.834 426.594 543.132 427.637C543.43 428.829 543.877 430.171 544.325 431.959C544.772 433.598 545.219 435.536 545.666 437.622C547.603 446.117 549.541 458.039 551.031 471.153C552.521 484.417 553.117 496.339 553.117 505.132C553.117 509.454 553.117 513.03 552.968 515.415C552.968 516.607 552.819 517.501 552.819 518.246C552.67 518.842 552.67 519.141 552.67 519.141Z" fill="#222131"/>
<path d="M552.67 495.89C552.67 495.89 552.67 494.847 552.67 492.91C552.819 490.972 552.968 488.29 553.564 485.011C554.16 481.733 554.905 477.709 556.097 473.536C556.693 471.599 557.886 466.83 560.866 459.826C564.89 450.288 570.255 442.538 575.024 437.769C576.067 436.428 577.408 435.534 578.302 434.64C578.749 434.193 579.197 433.746 579.793 433.448C580.24 433.149 580.687 432.851 581.134 432.553C582.624 431.51 583.518 430.914 583.667 430.914C583.816 431.063 580.24 433.298 575.62 438.067C571 442.985 565.784 450.586 561.76 459.975C559.525 465.042 558.035 469.661 556.842 473.536C555.65 477.709 554.756 481.733 554.16 485.011C553.564 488.29 553.266 490.972 552.968 492.91C552.819 494.996 552.67 495.89 552.67 495.89Z" fill="#222131"/>
<path d="M575.023 536.873L572.639 568.616H531.805L529.421 536.873H575.023Z" fill="#FFD66B"/>
<path d="M524.501 524.355H578.896V536.874H524.501V524.355Z" fill="#FFD66B"/>
<path d="M573.07 574.606L575.465 568.645H529.266L531.942 574.606H573.07Z" fill="#FFD66B"/>
<path d="M530.315 547.157C530.315 547.157 530.315 547.306 530.464 547.455C530.613 547.604 530.762 547.902 531.061 548.2C531.657 548.945 532.402 549.989 533.445 551.181L533.594 551.33C535.084 549.243 537.022 546.561 539.406 543.282H539.108C540.896 545.816 542.834 548.498 544.92 551.479L545.069 551.777L545.218 551.479C547.305 548.945 549.689 546.263 552.074 543.282H551.626C551.775 543.431 551.924 543.58 552.074 543.729C554.16 546.412 556.246 548.945 558.184 551.33L558.333 551.628L558.482 551.33C560.568 548.349 562.505 545.667 564.294 543.133H563.996C566.827 546.412 569.212 549.094 571.149 551.181L571.298 551.33L571.447 551.181C572.341 549.541 573.086 548.349 573.683 547.455C573.981 547.008 574.13 546.71 574.279 546.412C574.428 546.114 574.428 546.114 574.428 546.114C574.428 546.114 574.279 546.263 574.13 546.412C573.981 546.71 573.683 547.008 573.534 547.306C572.937 548.2 572.192 549.392 571.149 551.032H571.298C569.51 548.945 567.125 546.114 564.294 542.835L564.145 542.686L563.996 542.835C562.207 545.369 560.27 548.051 558.184 550.883H558.631C556.693 548.498 554.607 545.816 552.521 543.282C552.372 543.133 552.223 542.984 552.074 542.835L551.924 542.537L551.775 542.835C549.391 545.667 547.156 548.498 544.92 551.032H545.367C543.281 548.051 541.343 545.369 539.555 542.984L539.406 542.686L539.257 542.984C537.022 546.263 534.935 549.094 533.594 551.181H533.743C532.7 549.989 531.806 548.945 531.21 548.2C530.912 547.902 530.762 547.604 530.613 547.455C530.315 547.306 530.315 547.157 530.315 547.157Z" fill="#222131"/>
<path d="M551.775 536.873C539.182 536.873 528.974 536.74 528.974 536.575C528.974 536.411 539.182 536.277 551.775 536.277C564.368 536.277 574.576 536.411 574.576 536.575C574.576 536.74 564.368 536.873 551.775 536.873Z" fill="#455A64"/>
<path d="M128.835 187.898L157.15 306.525H149.252L121.235 187.898H128.835Z" fill="white"/>
<path d="M139.715 265.988C140.162 268.224 126.75 332.902 126.75 332.902H133.158L143.292 281.636L139.715 265.988Z" fill="white"/>
<path d="M45.2289 418.445H178.162V559.426H45.2289V418.445Z" fill="#788B9A"/>
<path d="M38.5228 439.012H45.0801V445.569H38.5228V439.012Z" fill="white"/>
<path d="M38.5228 459.727H45.0801V466.284H38.5228V459.727Z" fill="white"/>
<path d="M38.5228 480.59H45.0801V487.147H38.5228V480.59Z" fill="white"/>
<path d="M38.5228 501.305H45.0801V507.862H38.5228V501.305Z" fill="white"/>
<path d="M38.3732 482.377C38.3732 482.377 37.6281 482.228 36.4359 481.93C35.0946 481.781 33.3063 481.334 30.7728 481.334C28.3883 481.334 25.4078 481.781 22.7253 483.42C21.384 484.315 20.0427 485.507 19.2976 487.146C18.4034 488.785 18.1054 490.574 18.2544 492.511C18.4035 494.299 18.9995 496.088 19.8937 497.578C20.7879 499.068 21.9801 500.261 23.3214 501.155C25.8549 503.092 28.6864 503.837 31.0708 504.284C33.4553 504.582 35.3927 504.582 36.7339 504.433C38.0752 504.284 38.8203 504.135 38.8203 504.135C38.8203 504.135 38.0752 504.135 36.7339 504.135C35.3927 504.135 33.4553 504.135 31.2199 503.688C28.9844 503.241 26.3019 502.347 23.7685 500.559C21.384 498.77 19.1486 495.79 18.9996 492.362C18.8506 490.574 19.1486 488.934 19.8937 487.444C20.6389 485.954 21.8311 484.911 23.0233 484.016C25.5568 482.377 28.3883 481.93 30.7728 481.781C33.1572 481.781 34.9456 481.93 36.2868 482.079C37.6281 482.377 38.3732 482.526 38.3732 482.377Z" fill="white"/>
<path d="M40.0137 461.811C40.0137 461.811 39.8647 461.662 39.4176 461.364C38.9705 461.215 38.3744 460.917 37.4802 460.619C35.6919 460.023 33.0094 459.576 29.8798 460.172C29.1346 460.321 28.2405 460.619 27.4953 461.066C26.7502 461.513 26.0051 462.408 25.707 463.451C25.1109 465.388 25.856 467.624 27.1973 469.412C27.9424 470.306 28.8366 471.051 29.8798 471.498C30.923 471.945 32.4132 471.945 33.4564 471.349C34.4996 470.753 35.5428 469.561 35.5428 468.22C35.5428 466.878 34.6487 465.537 33.4564 464.941C32.2642 464.345 30.923 464.345 29.5817 464.494C28.3895 464.792 27.1973 465.388 26.3031 466.133C24.3657 467.624 23.1735 469.859 23.0245 472.094C22.7264 474.33 23.6206 476.416 24.6638 478.056C25.856 479.695 27.3463 480.738 28.6876 481.483C31.6681 482.973 34.3506 483.271 36.139 483.421C37.0331 483.421 37.7783 483.57 38.2254 483.57C38.6724 483.57 38.9705 483.57 38.9705 483.57C38.9705 483.57 37.9273 483.421 36.139 483.271C34.3506 482.973 31.8171 482.675 28.9856 481.185C27.6443 480.44 26.154 479.397 25.1109 477.906C24.0677 476.416 23.3225 474.479 23.6206 472.392C23.9186 470.306 24.9618 468.369 26.7502 467.027C27.6443 466.282 28.6875 465.835 29.7307 465.537C30.7739 465.239 31.9662 465.388 33.0094 465.835C34.0526 466.282 34.6487 467.325 34.6487 468.369C34.6487 469.412 33.9035 470.306 33.0094 470.902C32.1152 471.498 30.923 471.498 30.0288 471.051C28.9856 470.753 28.2405 470.008 27.6443 469.263C26.3031 467.773 25.707 465.686 26.1541 463.898C26.6012 462.109 28.2405 461.215 29.8798 460.917C33.0094 460.172 35.5428 460.619 37.3312 461.066C39.1195 461.364 40.0137 461.96 40.0137 461.811Z" fill="white"/>
<path d="M39.8643 441.544C39.8643 441.544 39.4172 441.395 38.374 441.246C37.4798 441.246 35.9895 441.246 34.3502 441.842C32.7109 442.438 30.9226 443.481 29.4323 445.121C27.942 446.909 26.8988 449.294 26.8988 451.976C26.7498 454.659 27.6439 457.192 28.9852 458.98C30.3264 460.769 32.1148 461.961 33.7541 462.557C35.3934 463.153 36.7347 463.302 37.6288 463.302C38.523 463.302 39.1191 463.153 39.1191 463.153C39.1191 463.004 36.8837 463.451 33.9031 461.961C32.4128 461.216 30.7735 460.173 29.5813 458.384C28.24 456.596 27.4949 454.361 27.6439 451.827C27.793 449.294 28.6871 447.058 30.0284 445.419C31.3696 443.78 33.158 442.736 34.6483 442.14C37.7779 441.246 39.8643 441.693 39.8643 441.544Z" fill="white"/>
<path d="M138.669 343.633C138.669 343.633 138.073 344.527 137.477 346.315C136.881 348.104 136.284 350.786 135.688 354.363C135.092 357.939 134.645 362.261 134.198 367.179C133.751 372.246 133.304 377.909 132.559 384.317C132.41 385.957 132.112 387.447 131.814 389.086C131.516 390.726 131.068 392.365 130.323 393.855C129.578 395.346 128.386 396.687 127.045 397.879C125.704 399.071 124.362 400.263 122.723 401.158C119.593 403.095 115.868 404.436 111.993 404.883C108.118 405.33 103.945 404.734 100.22 402.797C96.494 401.009 93.5134 397.432 92.6192 393.259C92.1722 391.173 92.3212 388.937 93.0663 386.851C93.8114 384.765 95.3018 383.125 97.2391 381.933C99.0275 380.741 101.263 379.996 103.498 379.847C105.734 379.698 108.118 380.294 109.907 381.784C110.801 382.529 111.546 383.274 111.993 384.317C112.44 385.361 112.589 386.404 112.44 387.596C111.993 389.832 110.354 391.769 108.267 392.812C106.181 394.004 103.796 394.451 101.412 394.749C99.0274 395.048 96.643 395.197 94.4076 395.197C89.6386 395.346 85.0188 394.898 80.5479 394.451C71.4572 393.408 62.6646 391.918 54.319 391.918C45.9734 391.769 37.7769 392.961 30.9216 396.389C27.4939 398.028 24.5133 400.264 22.2779 402.946C19.8935 405.629 18.4032 408.758 17.8071 411.888C16.4658 418.296 17.9561 424.257 20.3406 428.728C22.874 433.199 26.3017 436.179 29.1332 438.117C32.1138 440.054 34.6472 441.246 36.4356 441.842C38.2239 442.438 39.1181 442.737 39.1181 442.737C39.1181 442.737 38.8201 442.588 38.373 442.438C37.9259 442.289 37.1807 441.991 36.4356 441.693C34.6472 440.948 32.1138 439.905 29.2822 437.819C26.4507 435.732 23.023 432.752 20.6386 428.43C18.2541 424.108 16.9129 418.147 18.2542 412.037C18.9993 409.056 20.3406 405.927 22.725 403.393C24.9604 400.86 27.941 398.624 31.2196 397.134C37.9259 393.855 45.9734 392.663 54.319 392.812C62.6646 392.961 71.4572 394.451 80.5479 395.346C85.1678 395.793 89.7877 396.24 94.5566 396.091C96.941 396.091 99.3255 395.942 101.71 395.644C104.094 395.346 106.628 394.898 108.714 393.706C110.95 392.514 112.738 390.428 113.185 387.894C113.483 386.702 113.185 385.361 112.738 384.168C112.142 382.976 111.397 382.082 110.354 381.337C108.416 379.847 105.883 379.251 103.498 379.251C101.114 379.4 98.7294 380.145 96.792 381.486C94.8546 382.827 93.2153 384.616 92.3212 386.851C91.427 389.086 91.427 391.471 91.8741 393.557C92.9173 398.028 96.0469 401.605 99.9216 403.542C103.796 405.479 108.118 406.076 111.993 405.629C116.017 405.181 119.742 403.84 123.021 401.903C124.66 400.86 126.151 399.816 127.343 398.475C128.684 397.134 129.876 395.942 130.77 394.302C131.516 392.663 131.963 391.024 132.261 389.384C132.559 387.745 132.857 386.106 133.006 384.616C133.751 378.356 134.198 372.544 134.645 367.477C135.092 362.41 135.539 358.089 135.986 354.661C136.434 351.084 137.03 348.402 137.626 346.613C137.924 345.719 138.073 344.974 138.371 344.676C138.52 343.782 138.669 343.633 138.669 343.633Z" fill="white"/>
<path d="M52.6813 553.464C52.6813 553.464 52.6813 553.315 52.6813 552.868C52.6813 552.421 52.6813 551.825 52.6813 551.08C52.6813 549.441 52.6813 547.205 52.6813 544.076C52.6813 537.965 52.6813 529.024 52.8303 517.698C52.8303 495.045 52.9793 462.706 52.9793 423.959L52.6813 424.257C87.8519 424.257 128.984 424.257 172.947 424.257L172.5 423.81C172.5 471.499 172.5 515.909 172.5 553.315L172.798 553.017C136.733 553.017 106.779 553.166 85.7655 553.166C75.1845 553.166 66.988 553.166 61.3249 553.315C58.4934 553.315 56.407 553.315 54.9167 553.315C53.4264 553.464 52.6813 553.464 52.6813 553.464C52.6813 553.464 53.4264 553.464 54.9167 553.464C56.407 553.464 58.4934 553.464 61.3249 553.464C66.988 553.464 75.1845 553.464 85.6165 553.613C106.629 553.613 136.733 553.762 172.947 553.762H173.245V553.464C173.245 516.058 173.245 471.499 173.245 423.959V423.512H172.798C128.984 423.512 87.852 423.512 52.5323 423.512H52.2342V423.81C52.2342 462.557 52.3832 495.045 52.3832 517.698C52.3832 529.024 52.3832 537.965 52.5323 544.076C52.5323 547.056 52.5323 549.441 52.5323 550.931C52.5323 551.676 52.5323 552.272 52.5323 552.719C52.6813 553.315 52.6813 553.464 52.6813 553.464Z" fill="white"/>
<path d="M87.106 440.501C86.7768 440.501 86.5099 440.234 86.5099 439.905C86.5099 439.575 86.7768 439.309 87.106 439.309C87.4353 439.309 87.7021 439.575 87.7021 439.905C87.7021 440.234 87.4353 440.501 87.106 440.501Z" fill="#263238"/>
<path d="M83.8277 440.501C83.4985 440.501 83.2316 440.234 83.2316 439.905C83.2316 439.575 83.4985 439.309 83.8277 439.309C84.1569 439.309 84.4238 439.575 84.4238 439.905C84.4238 440.234 84.1569 440.501 83.8277 440.501Z" fill="#263238"/>
<path d="M80.399 440.501C80.0698 440.501 79.8029 440.234 79.8029 439.905C79.8029 439.575 80.0698 439.309 80.399 439.309C80.7282 439.309 80.9951 439.575 80.9951 439.905C80.9951 440.234 80.7282 440.501 80.399 440.501Z" fill="#263238"/>
<path d="M76.8785 440.591C76.5493 440.591 76.2824 440.324 76.2824 439.995C76.2824 439.665 76.5493 439.398 76.8785 439.398C77.2077 439.398 77.4746 439.665 77.4746 439.995C77.4746 440.324 77.2077 440.591 76.8785 440.591Z" fill="#263238"/>
<path d="M73.4507 440.591C73.1215 440.591 72.8546 440.324 72.8546 439.995C72.8546 439.665 73.1215 439.398 73.4507 439.398C73.7799 439.398 74.0469 439.665 74.0469 439.995C74.0469 440.324 73.7799 440.591 73.4507 440.591Z" fill="#263238"/>
<path d="M70.1168 440.501C69.7876 440.501 69.5207 440.234 69.5207 439.905C69.5207 439.575 69.7876 439.309 70.1168 439.309C70.446 439.309 70.7129 439.575 70.7129 439.905C70.7129 440.234 70.446 440.501 70.1168 440.501Z" fill="#263238"/>
<path d="M66.8394 440.501C66.5102 440.501 66.2433 440.234 66.2433 439.905C66.2433 439.575 66.5102 439.309 66.8394 439.309C67.1686 439.309 67.4355 439.575 67.4355 439.905C67.4355 440.234 67.1686 440.501 66.8394 440.501Z" fill="#263238"/>
<path d="M68.3296 442.886C68.0004 442.886 67.7335 442.619 67.7335 442.289C67.7335 441.96 68.0004 441.693 68.3296 441.693C68.6589 441.693 68.9258 441.96 68.9258 442.289C68.9258 442.619 68.6589 442.886 68.3296 442.886Z" fill="#263238"/>
<path d="M71.6627 442.975C71.3335 442.975 71.0666 442.709 71.0666 442.379C71.0666 442.05 71.3335 441.783 71.6627 441.783C71.9919 441.783 72.2588 442.05 72.2588 442.379C72.2588 442.709 71.9919 442.975 71.6627 442.975Z" fill="#263238"/>
<path d="M75.2379 442.975C74.9087 442.975 74.6418 442.709 74.6418 442.379C74.6418 442.05 74.9087 441.783 75.2379 441.783C75.5671 441.783 75.834 442.05 75.834 442.379C75.834 442.709 75.5671 442.975 75.2379 442.975Z" fill="#263238"/>
<path d="M78.6665 442.975C78.3373 442.975 78.0704 442.709 78.0704 442.379C78.0704 442.05 78.3373 441.783 78.6665 441.783C78.9958 441.783 79.2627 442.05 79.2627 442.379C79.2627 442.709 78.9958 442.975 78.6665 442.975Z" fill="#263238"/>
<path d="M82.1891 442.886C81.8598 442.886 81.5929 442.619 81.5929 442.289C81.5929 441.96 81.8598 441.693 82.1891 441.693C82.5183 441.693 82.7852 441.96 82.7852 442.289C82.7852 442.619 82.5183 442.886 82.1891 442.886Z" fill="#263238"/>
<path d="M85.7652 442.886C85.436 442.886 85.1691 442.619 85.1691 442.289C85.1691 441.96 85.436 441.693 85.7652 441.693C86.0944 441.693 86.3613 441.96 86.3613 442.289C86.3613 442.619 86.0944 442.886 85.7652 442.886Z" fill="#263238"/>
<path d="M87.106 445.419C86.7768 445.419 86.5099 445.152 86.5099 444.823C86.5099 444.493 86.7768 444.227 87.106 444.227C87.4353 444.227 87.7021 444.493 87.7021 444.823C87.7021 445.152 87.4353 445.419 87.106 445.419Z" fill="#263238"/>
<path d="M83.8277 445.419C83.4985 445.419 83.2316 445.152 83.2316 444.823C83.2316 444.493 83.4985 444.227 83.8277 444.227C84.1569 444.227 84.4238 444.493 84.4238 444.823C84.4238 445.152 84.1569 445.419 83.8277 445.419Z" fill="#263238"/>
<path d="M80.399 445.419C80.0698 445.419 79.8029 445.152 79.8029 444.823C79.8029 444.493 80.0698 444.227 80.399 444.227C80.7282 444.227 80.9951 444.493 80.9951 444.823C80.9951 445.152 80.7282 445.419 80.399 445.419Z" fill="#263238"/>
<path d="M76.8785 445.509C76.5493 445.509 76.2824 445.242 76.2824 444.913C76.2824 444.583 76.5493 444.316 76.8785 444.316C77.2077 444.316 77.4746 444.583 77.4746 444.913C77.4746 445.242 77.2077 445.509 76.8785 445.509Z" fill="#263238"/>
<path d="M73.4507 445.509C73.1215 445.509 72.8546 445.242 72.8546 444.913C72.8546 444.583 73.1215 444.316 73.4507 444.316C73.7799 444.316 74.0469 444.583 74.0469 444.913C74.0469 445.242 73.7799 445.509 73.4507 445.509Z" fill="#263238"/>
<path d="M70.1168 445.419C69.7876 445.419 69.5207 445.152 69.5207 444.823C69.5207 444.493 69.7876 444.227 70.1168 444.227C70.446 444.227 70.7129 444.493 70.7129 444.823C70.7129 445.152 70.446 445.419 70.1168 445.419Z" fill="#263238"/>
<path d="M66.8394 445.419C66.5102 445.419 66.2433 445.152 66.2433 444.823C66.2433 444.493 66.5102 444.227 66.8394 444.227C67.1686 444.227 67.4355 444.493 67.4355 444.823C67.4355 445.152 67.1686 445.419 66.8394 445.419Z" fill="#263238"/>
<path d="M68.3296 447.653C68.0004 447.653 67.7335 447.386 67.7335 447.057C67.7335 446.728 68.0004 446.461 68.3296 446.461C68.6589 446.461 68.9258 446.728 68.9258 447.057C68.9258 447.386 68.6589 447.653 68.3296 447.653Z" fill="#263238"/>
<path d="M71.6627 447.743C71.3335 447.743 71.0666 447.476 71.0666 447.147C71.0666 446.818 71.3335 446.551 71.6627 446.551C71.9919 446.551 72.2588 446.818 72.2588 447.147C72.2588 447.476 71.9919 447.743 71.6627 447.743Z" fill="#263238"/>
<path d="M75.2379 447.743C74.9087 447.743 74.6418 447.476 74.6418 447.147C74.6418 446.818 74.9087 446.551 75.2379 446.551C75.5671 446.551 75.834 446.818 75.834 447.147C75.834 447.476 75.5671 447.743 75.2379 447.743Z" fill="#263238"/>
<path d="M78.6665 447.743C78.3373 447.743 78.0704 447.476 78.0704 447.147C78.0704 446.818 78.3373 446.551 78.6665 446.551C78.9958 446.551 79.2627 446.818 79.2627 447.147C79.2627 447.476 78.9958 447.743 78.6665 447.743Z" fill="#263238"/>
<path d="M82.1891 447.653C81.8598 447.653 81.5929 447.386 81.5929 447.057C81.5929 446.728 81.8598 446.461 82.1891 446.461C82.5183 446.461 82.7852 446.728 82.7852 447.057C82.7852 447.386 82.5183 447.653 82.1891 447.653Z" fill="#263238"/>
<path d="M85.7652 447.653C85.436 447.653 85.1691 447.386 85.1691 447.057C85.1691 446.728 85.436 446.461 85.7652 446.461C86.0944 446.461 86.3613 446.728 86.3613 447.057C86.3613 447.386 86.0944 447.653 85.7652 447.653Z" fill="#263238"/>
<path d="M87.106 450.337C86.7768 450.337 86.5099 450.07 86.5099 449.741C86.5099 449.411 86.7768 449.145 87.106 449.145C87.4353 449.145 87.7021 449.411 87.7021 449.741C87.7021 450.07 87.4353 450.337 87.106 450.337Z" fill="#263238"/>
<path d="M83.8277 450.337C83.4985 450.337 83.2316 450.07 83.2316 449.741C83.2316 449.411 83.4985 449.145 83.8277 449.145C84.1569 449.145 84.4238 449.411 84.4238 449.741C84.4238 450.07 84.1569 450.337 83.8277 450.337Z" fill="#263238"/>
<path d="M80.399 450.337C80.0698 450.337 79.8029 450.07 79.8029 449.741C79.8029 449.411 80.0698 449.145 80.399 449.145C80.7282 449.145 80.9951 449.411 80.9951 449.741C80.9951 450.07 80.7282 450.337 80.399 450.337Z" fill="#263238"/>
<path d="M76.8785 450.427C76.5493 450.427 76.2824 450.16 76.2824 449.83C76.2824 449.501 76.5493 449.234 76.8785 449.234C77.2077 449.234 77.4746 449.501 77.4746 449.83C77.4746 450.16 77.2077 450.427 76.8785 450.427Z" fill="#263238"/>
<path d="M73.4507 450.427C73.1215 450.427 72.8546 450.16 72.8546 449.83C72.8546 449.501 73.1215 449.234 73.4507 449.234C73.7799 449.234 74.0469 449.501 74.0469 449.83C74.0469 450.16 73.7799 450.427 73.4507 450.427Z" fill="#263238"/>
<path d="M70.1168 450.337C69.7876 450.337 69.5207 450.07 69.5207 449.741C69.5207 449.411 69.7876 449.145 70.1168 449.145C70.446 449.145 70.7129 449.411 70.7129 449.741C70.7129 450.07 70.446 450.337 70.1168 450.337Z" fill="#263238"/>
<path d="M66.8394 450.337C66.5102 450.337 66.2433 450.07 66.2433 449.741C66.2433 449.411 66.5102 449.145 66.8394 449.145C67.1686 449.145 67.4355 449.411 67.4355 449.741C67.4355 450.07 67.1686 450.337 66.8394 450.337Z" fill="#263238"/>
<path d="M68.3296 452.573C68.0004 452.573 67.7335 452.306 67.7335 451.977C67.7335 451.648 68.0004 451.381 68.3296 451.381C68.6589 451.381 68.9258 451.648 68.9258 451.977C68.9258 452.306 68.6589 452.573 68.3296 452.573Z" fill="#263238"/>
<path d="M71.6627 452.663C71.3335 452.663 71.0666 452.396 71.0666 452.067C71.0666 451.738 71.3335 451.471 71.6627 451.471C71.9919 451.471 72.2588 451.738 72.2588 452.067C72.2588 452.396 71.9919 452.663 71.6627 452.663Z" fill="#263238"/>
<path d="M75.2379 452.663C74.9087 452.663 74.6418 452.396 74.6418 452.067C74.6418 451.738 74.9087 451.471 75.2379 451.471C75.5671 451.471 75.834 451.738 75.834 452.067C75.834 452.396 75.5671 452.663 75.2379 452.663Z" fill="#263238"/>
<path d="M78.6665 452.663C78.3373 452.663 78.0704 452.396 78.0704 452.067C78.0704 451.738 78.3373 451.471 78.6665 451.471C78.9958 451.471 79.2627 451.738 79.2627 452.067C79.2627 452.396 78.9958 452.663 78.6665 452.663Z" fill="#263238"/>
<path d="M82.1891 452.573C81.8598 452.573 81.5929 452.306 81.5929 451.977C81.5929 451.648 81.8598 451.381 82.1891 451.381C82.5183 451.381 82.7852 451.648 82.7852 451.977C82.7852 452.306 82.5183 452.573 82.1891 452.573Z" fill="#263238"/>
<path d="M85.7652 452.573C85.436 452.573 85.1691 452.306 85.1691 451.977C85.1691 451.648 85.436 451.381 85.7652 451.381C86.0944 451.381 86.3613 451.648 86.3613 451.977C86.3613 452.306 86.0944 452.573 85.7652 452.573Z" fill="#263238"/>
<path d="M571.744 332.901V347.208H492.908V559.424H485.606V347.208L156.104 348.847V559.424H148.951V348.4L98.1325 348.847V331.709L571.744 332.901Z" fill="#605CFF"/>
<path d="M521.223 344.377L490.076 366.731L492.907 369.414L524.203 345.718L521.223 344.377Z" fill="#FF69B4"/>
<path d="M119.594 346.463L155.808 372.245L153.125 374.778L116.762 347.804L119.594 346.463Z" fill="#FF69B4"/>
<path d="M375.474 327.686H456.992V333.647H375.474V327.686Z" fill="#263238"/>
</svg>
