<svg width="694" height="428" viewBox="0 0 694 428" fill="none" xmlns="http://www.w3.org/2000/svg">
<path opacity="0.3" d="M337.281 96.0325C365.893 91.9764 392.971 80.7947 416.321 63.9125C451.291 38.5891 524.301 -4.49338 594.022 16.9931C690.273 46.4821 690.711 132.099 665.607 178.58C640.613 225.061 462.911 361.215 232.59 339.619C26.4952 320.215 -13.6275 98.3346 96.2165 58.1023C191.7 23.3513 224.149 112.038 337.281 96.0325Z" fill="#605CFF"/>
<path d="M661.333 223.416C657.034 223.416 653.549 219.932 653.549 215.633C653.549 211.334 657.034 207.85 661.333 207.85C665.631 207.85 669.116 211.334 669.116 215.633C669.116 219.932 665.631 223.416 661.333 223.416Z" fill="#FFCDB3"/>
<path opacity="0.3" d="M339.047 427.224C214.205 427.224 113 423.592 113 419.112C113 414.632 214.205 411 339.047 411C463.888 411 565.093 414.632 565.093 419.112C565.093 423.592 463.888 427.224 339.047 427.224Z" fill="#605CFF"/>
<path d="M388.039 104.474L387.71 106.228L387.272 108.092L386.395 111.929C385.847 114.56 385.189 117.081 384.531 119.712C383.873 122.343 383.216 124.864 382.448 127.386C381.79 129.907 381.023 132.429 380.256 134.95C379.488 137.471 378.611 139.883 377.734 142.295C376.857 144.707 375.98 147.118 374.994 149.311C374.007 151.613 373.02 153.805 371.924 155.998C370.828 158.081 369.732 160.164 368.526 161.918C367.32 163.781 366.114 165.426 365.018 166.741C363.812 168.057 362.716 169.153 361.729 169.701C361.291 170.03 360.852 170.249 360.523 170.359C360.194 170.468 359.975 170.578 359.646 170.688H359.537L359.098 170.797L358.111 171.016L356.138 171.345L352.082 172.003L348.026 172.661L343.97 173.319C341.229 173.757 338.598 174.196 335.858 174.524L331.802 175.182C330.486 175.401 329.061 175.621 327.745 175.84L325.663 176.169L323.58 176.498C322.922 176.607 322.264 176.717 321.497 176.827C320.839 176.936 320.072 177.046 319.524 177.155L318.975 177.265C312.617 178.471 308.342 184.61 309.548 191.078C310.534 196.34 314.919 200.177 320.072 200.615L322.264 200.834C323.032 200.944 323.689 200.944 324.457 201.054C325.882 201.163 327.417 201.273 328.842 201.383L331.034 201.492L333.227 201.602C334.652 201.602 336.077 201.711 337.612 201.711C339.037 201.711 340.572 201.711 341.997 201.711C343.422 201.711 344.957 201.711 346.382 201.711C349.342 201.711 352.192 201.602 355.152 201.492C356.577 201.383 358.111 201.383 359.537 201.273L361.729 201.163L362.825 201.054H363.373L364.36 200.944C366.881 200.615 369.403 199.957 371.705 199.08C374.007 198.203 376.09 197.107 378.063 196.011C380.036 194.805 381.79 193.599 383.325 192.174C384.97 190.859 386.395 189.433 387.71 188.118C389.026 186.693 390.232 185.268 391.437 183.843C392.534 182.417 393.63 180.992 394.617 179.567C396.59 176.717 398.344 173.867 399.879 170.907C401.413 168.057 402.838 165.097 404.044 162.247C405.36 159.396 406.456 156.436 407.552 153.586C408.649 150.736 409.635 147.776 410.622 144.926C411.499 142.076 412.376 139.116 413.253 136.265C414.02 133.415 414.787 130.455 415.445 127.605C416.103 124.755 416.761 121.795 417.418 118.835C417.747 117.41 417.967 115.875 418.295 114.45L418.734 112.258L418.953 111.161L419.172 109.846C420.488 101.295 414.568 93.2926 406.017 91.9771C397.686 90.6616 389.903 96.2524 388.258 104.365L388.039 104.474Z" fill="#FFAA8C"/>
<path d="M421.584 113.683C419.501 120.809 411.06 145.036 403.605 157.094L370.827 141.637C370.827 141.637 382.009 115.766 387.819 99.4317C389.683 94.1697 393.849 89.8944 399.22 88.0308C402.838 86.8249 407.113 86.496 411.937 88.7981C421.364 93.2927 422.351 103.707 422.241 108.859C422.351 110.613 422.022 112.148 421.584 113.683Z" fill="#FF69B4"/>
<path d="M297.268 367.902L288.607 381.934L272.164 374.699L279.618 359.57L297.268 367.902Z" fill="#FFAA8C"/>
<path d="M220.042 382.237L282.199 409.753C283.076 409.095 283.843 407.999 284.501 406.683C287.242 401.64 289.215 392.432 290.75 386.731C290.969 386.074 291.078 385.416 291.298 384.868C291.627 383.881 291.846 383.114 292.065 382.675C293.929 378.4 289.872 377.413 289.872 377.413C280.883 380.812 277.814 368.424 272.333 369.63C272.333 369.63 269.921 370.068 263.014 372.37C256.108 374.673 246.351 373.796 237.91 373.686C226.948 373.467 222.673 376.207 220.919 378.619C219.713 380.483 220.042 382.237 220.042 382.237Z" fill="#FF69B4"/>
<path d="M220.092 382.702L282.25 410.218C283.127 409.56 283.894 408.464 284.552 407.148L220.969 378.975C219.764 380.948 220.092 382.702 220.092 382.702Z" fill="#605CFF"/>
<path d="M276.002 407.476L277.865 408.243C276.988 405.284 276.659 401.337 278.962 396.842C282.031 390.813 287.512 388.292 291.02 387.305C291.239 386.647 291.349 385.99 291.568 385.441C287.841 386.318 281.154 388.84 277.536 396.075C275.234 400.46 275.234 404.297 276.002 407.476Z" fill="#605CFF"/>
<path d="M262.518 377.001C262.956 377.22 263.504 377.11 263.833 376.672C264.162 376.233 264.162 375.466 263.614 375.137L260.106 372.396C259.667 372.067 258.9 372.067 258.571 372.616C258.242 373.054 258.242 373.821 258.79 374.15L262.298 376.891C262.408 376.891 262.518 376.891 262.518 377.001Z" fill="#605CFF"/>
<path d="M267.89 375.465C268.328 375.685 268.876 375.575 269.205 375.137C269.534 374.698 269.534 373.931 268.986 373.602L265.478 370.861C265.04 370.532 264.272 370.532 263.943 371.08C263.614 371.519 263.614 372.286 264.163 372.615L267.671 375.356C267.671 375.356 267.78 375.356 267.89 375.465Z" fill="#605CFF"/>
<path d="M257.693 377.549C258.132 377.769 258.68 377.659 259.009 377.22C259.338 376.782 259.338 376.015 258.79 375.686L255.282 372.945C254.843 372.616 254.076 372.616 253.747 373.164C253.418 373.603 253.418 374.37 253.966 374.699L257.474 377.44C257.474 377.44 257.584 377.44 257.693 377.549Z" fill="#605CFF"/>
<path d="M252.87 377.987C253.309 378.206 253.857 378.096 254.186 377.658C254.515 377.219 254.515 376.452 253.966 376.123L250.458 373.383C250.02 373.054 249.253 373.054 248.924 373.602C248.595 374.04 248.595 374.808 249.143 375.137L252.651 377.877C252.651 377.877 252.761 377.877 252.87 377.987Z" fill="#605CFF"/>
<path d="M247.718 378.098C248.156 378.317 248.705 378.208 249.033 377.769C249.362 377.331 249.362 376.563 248.814 376.235L245.306 373.494C244.868 373.165 244.1 373.165 243.771 373.713C243.442 374.152 243.443 374.919 243.991 375.248L247.499 377.989C247.499 377.989 247.608 378.098 247.718 378.098Z" fill="#605CFF"/>
<path d="M242.346 377.768C242.784 377.987 243.332 377.878 243.661 377.439C243.99 377.001 243.99 376.233 243.442 375.905L239.934 373.164C239.496 372.835 238.728 372.835 238.399 373.383C238.07 373.822 238.07 374.589 238.619 374.918L242.127 377.658C242.127 377.658 242.236 377.768 242.346 377.768Z" fill="#605CFF"/>
<path d="M335.857 231.748C341.667 226.048 387.161 213.331 417.418 221.772C420.926 228.46 425.311 245.342 414.458 261.018C374.664 267.486 352.52 280.86 352.52 280.86C352.52 280.86 338.378 313.419 330.047 325.368C321.715 337.317 302.421 375.357 302.421 375.357L273.48 362.969C273.59 362.969 320.18 247.205 335.857 231.748Z" fill="#222131"/>
<path d="M305.6 368.232C305.49 368.232 305.38 368.232 305.271 368.122L276.988 356.392C276.549 356.173 276.33 355.734 276.549 355.296C276.768 354.857 277.207 354.638 277.645 354.857L305.929 366.587C306.367 366.807 306.586 367.245 306.367 367.684C306.257 368.012 305.929 368.232 305.6 368.232Z" fill="#F1F4FA"/>
<path d="M300.886 365.82C300.776 365.82 300.666 365.82 300.557 365.71C300.118 365.491 299.899 365.052 300.118 364.614C300.228 364.504 306.148 349.705 319.96 328.657C333.663 307.828 348.024 272.529 348.244 272.2C348.463 271.762 348.901 271.543 349.34 271.762C349.778 271.981 349.997 272.42 349.778 272.858C349.669 273.187 335.198 308.596 321.385 329.534C307.682 350.363 301.763 365.052 301.763 365.162C301.434 365.601 301.214 365.82 300.886 365.82Z" fill="#F1F4FA"/>
<path d="M370.389 370.313L368.196 386.757H350.108L350.875 369.875L370.389 370.313Z" fill="#FFAA8C"/>
<path d="M305.659 414.686H373.736C374.284 413.809 374.503 412.493 374.613 410.959C375.051 405.148 373.188 396.05 372.311 390.24C372.201 389.582 372.091 388.924 371.982 388.376C371.872 387.389 371.763 386.622 371.763 385.964C371.763 381.25 367.597 382.018 367.597 382.018C360.691 388.814 352.907 378.619 348.303 382.018C348.303 382.018 346.33 383.443 340.958 388.266C335.586 393.09 326.378 396.379 318.595 399.558C308.509 403.833 305.659 407.999 305.111 410.849C304.672 413.261 305.659 414.686 305.659 414.686Z" fill="#FF69B4"/>
<path d="M305.71 415.151H373.787C374.335 414.274 374.554 412.959 374.664 411.424H305.162C304.723 413.726 305.71 415.151 305.71 415.151Z" fill="#605CFF"/>
<path d="M366.88 415.15H368.853C366.88 412.848 364.907 409.34 365.236 404.297C365.565 397.61 369.621 393.006 372.361 390.703C372.252 390.046 372.142 389.388 372.032 388.84C368.963 391.142 363.92 396.185 363.482 404.297C363.372 409.011 365.016 412.628 366.88 415.15Z" fill="#605CFF"/>
<path d="M342.324 392.677C342.872 392.677 343.311 392.348 343.42 391.8C343.53 391.252 343.201 390.594 342.653 390.484L338.378 389.388C337.83 389.279 337.172 389.607 337.062 390.156C336.953 390.704 337.281 391.361 337.83 391.471L342.105 392.567C342.105 392.677 342.215 392.677 342.324 392.677Z" fill="#605CFF"/>
<path d="M346.49 389.169C347.038 389.169 347.477 388.84 347.586 388.292C347.696 387.744 347.367 387.086 346.819 386.977L342.544 385.88C341.996 385.771 341.338 386.1 341.228 386.648C341.119 387.196 341.447 387.854 341.996 387.963L346.271 389.06C346.381 389.169 346.381 389.169 346.49 389.169Z" fill="#605CFF"/>
<path d="M338.051 395.198C338.599 395.198 339.037 394.87 339.147 394.321C339.257 393.773 338.928 393.116 338.38 393.006L334.104 391.91C333.556 391.8 332.898 392.129 332.789 392.677C332.679 393.225 333.008 393.883 333.556 393.993L337.831 395.089C337.831 395.198 337.941 395.198 338.051 395.198Z" fill="#605CFF"/>
<path d="M333.773 397.611C334.321 397.611 334.76 397.282 334.87 396.734C334.979 396.185 334.65 395.528 334.102 395.418L329.827 394.322C329.279 394.212 328.621 394.541 328.511 395.089C328.402 395.637 328.731 396.295 329.279 396.405L333.554 397.501C333.554 397.501 333.664 397.611 333.773 397.611Z" fill="#605CFF"/>
<path d="M329.169 399.804C329.717 399.804 330.156 399.475 330.265 398.927C330.375 398.379 330.046 397.721 329.498 397.611L325.222 396.515C324.674 396.406 324.016 396.734 323.907 397.283C323.797 397.831 324.126 398.488 324.674 398.598L328.95 399.694C328.95 399.804 329.059 399.804 329.169 399.804Z" fill="#605CFF"/>
<path d="M324.127 401.667C324.675 401.667 325.114 401.338 325.223 400.79C325.333 400.242 325.004 399.584 324.456 399.475L320.18 398.378C319.632 398.269 318.975 398.598 318.865 399.146C318.755 399.694 319.084 400.352 319.632 400.461L323.908 401.558C323.908 401.667 324.017 401.667 324.127 401.667Z" fill="#605CFF"/>
<path d="M389.245 98.2259C389.135 104.913 396.48 117.081 401.194 143.282C401.303 143.939 401.413 144.597 401.523 145.255C401.742 146.68 401.961 148.215 402.29 149.75C402.4 150.407 402.509 150.955 402.509 151.613C402.728 153.148 402.948 154.683 403.167 156.327C403.277 156.875 403.277 157.423 403.386 157.971C403.605 160.054 403.825 162.137 404.044 164.33C404.263 166.303 404.373 168.167 404.482 170.249C404.592 171.236 404.592 172.332 404.702 173.319C404.702 174.415 404.811 175.511 404.811 176.608C405.359 188.337 406.017 215.853 405.031 231.201C426.188 244.575 470.257 245.342 499.966 223.198C501.72 212.674 498.979 176.936 498.102 166.303C497.883 164.22 497.663 162.028 497.444 159.945C496.238 149.75 494.155 139.664 491.634 129.25C491.524 128.702 491.305 128.153 491.196 127.496C489.113 118.835 486.811 109.956 484.289 100.528C479.466 81.7822 470.915 71.2582 459.624 71.6967C454.362 71.8064 450.086 71.1486 446.798 70.3812C446.359 70.2716 446.03 70.162 445.701 70.0524C441.755 68.9561 439.453 67.6406 439.453 67.6406L414.897 72.3545C413.362 75.8625 411.06 78.2742 408.429 80.1378C408.1 80.3571 407.881 80.5763 407.552 80.7956C399.659 86.1672 389.354 87.2635 389.245 98.2259Z" fill="#FF69B4"/>
<path d="M402.29 149.747C402.399 150.405 402.509 150.953 402.509 151.611C402.728 153.146 402.947 154.681 403.167 156.325C403.276 156.873 403.276 157.421 403.386 157.969C403.605 160.052 403.824 162.135 404.044 164.328C404.263 166.301 404.373 168.164 404.482 170.247C404.592 171.234 404.592 172.33 404.701 173.317L411.389 181.758L419.172 160.6L405.03 142.293L402.29 149.747Z" fill="#FF69B4"/>
<path d="M440.878 157.312L432.875 178.36L419.063 160.6L426.956 138.785L440.878 157.312Z" fill="#FF69B4"/>
<path d="M462.803 154.244L454.581 175.292L440.878 157.313L448.99 135.607L462.803 154.244Z" fill="#AD2F24"/>
<path d="M484.617 151.502L476.176 172.331L462.692 154.243L471.024 132.646L484.617 151.502Z" fill="#FF69B4"/>
<path d="M489.881 216.073C490.21 216.073 490.429 215.854 490.429 215.525C492.841 156.985 481.769 113.793 481.659 113.355C481.549 113.026 481.33 112.916 481.001 112.916C480.672 113.026 480.563 113.245 480.563 113.574C480.672 114.012 491.744 156.985 489.333 215.415C489.333 215.744 489.552 216.073 489.881 216.073Z" fill="white"/>
<path d="M426.517 93.6227C425.609 93.6227 424.872 92.8865 424.872 91.9784C424.872 91.0702 425.609 90.334 426.517 90.334C427.425 90.334 428.161 91.0702 428.161 91.9784C428.161 92.8865 427.425 93.6227 426.517 93.6227Z" fill="white"/>
<path d="M426.954 101.734C426.046 101.734 425.31 100.998 425.31 100.09C425.31 99.1815 426.046 98.4453 426.954 98.4453C427.862 98.4453 428.599 99.1815 428.599 100.09C428.599 100.998 427.862 101.734 426.954 101.734Z" fill="white"/>
<path d="M425.858 112.476C429.915 111.161 433.861 108.749 437.698 105.131C444.275 98.9924 448.112 91.4283 448.112 91.4283C448.222 91.0994 448.112 90.7706 447.893 90.6609C447.674 90.4417 447.345 90.5513 447.126 90.8802C447.126 90.9898 443.289 98.3347 436.931 104.364C428.38 112.367 419.5 114.45 410.511 110.613C410.182 110.503 409.963 110.613 409.853 110.942C409.744 111.27 409.853 111.599 410.182 111.709C415.334 114.011 420.596 114.34 425.749 112.696C425.749 112.476 425.749 112.476 425.858 112.476Z" fill="white"/>
<path d="M424.653 84.522C430.463 83.4257 436.164 77.1771 436.493 76.8482C436.712 76.629 436.712 76.3001 436.493 75.9712C436.274 75.6424 435.945 75.752 435.725 75.9712C435.616 76.0809 425.969 86.4952 419.83 82.6583C419.611 82.4391 419.282 82.5487 419.062 82.8776C418.953 83.2065 419.062 83.5353 419.282 83.645C420.926 84.6316 422.79 84.8508 424.653 84.522Z" fill="white"/>
<path d="M435.506 207.193C437.698 206.755 439.891 206.207 442.083 205.33C447.455 203.357 452.826 200.068 458.088 195.683C467.078 188.228 472.669 179.897 472.669 179.787C472.888 179.568 472.778 179.13 472.559 179.02C472.34 178.801 472.011 178.91 471.792 179.13C471.792 179.239 466.201 187.461 457.431 194.806C449.319 201.603 436.602 209.057 422.351 205.988C422.022 205.878 421.803 206.097 421.693 206.426C421.693 206.755 421.803 207.084 422.132 207.084C426.407 208.07 430.902 208.07 435.506 207.193Z" fill="white"/>
<path d="M432.435 37.9317C432.764 40.782 436.82 39.3568 438.793 37.3836C439.67 36.5066 439.232 34.5333 439.122 32.1216C439.013 29.1617 438.355 31.135 440.438 26.8596C442.63 22.2554 439.013 15.4586 436.053 15.8971C436.053 15.8971 438.574 8.99079 432.435 5.15392C426.954 1.75556 423.446 5.59242 423.446 5.59242C423.446 5.59242 421.473 -0.108064 416.43 0.0015611C411.387 0.111186 408.427 5.37317 408.427 5.37317C408.427 5.37317 404.371 1.53631 398.999 4.71542C393.628 7.89454 396.259 11.9507 396.259 11.9507C396.259 11.9507 390.339 12.2795 388.914 17.3223C387.599 21.5976 390.887 24.119 390.887 24.119C390.887 24.119 388.695 26.4211 390.12 31.0254C391.326 34.9718 394.286 34.7526 394.834 37.4932C395.163 39.028 395.82 40.782 396.368 42.0975C396.807 43.0841 398.122 44.6188 399.109 44.5092C400.425 44.2899 400.863 41.8782 400.425 40.5627C399.767 38.3702 398.999 35.1911 399.986 32.9986C401.63 29.4906 399.548 25.873 402.836 24.119C406.125 22.365 418.951 26.0922 426.296 19.5148C426.296 19.5148 426.735 24.4479 429.914 25.3249C433.093 26.2019 432.545 30.1484 432.545 33.4371C432.325 34.7526 432.435 37.9317 432.435 37.9317Z" fill="#222131"/>
<path d="M413.8 68.1883L415.006 74.4369C415.883 74.8754 416.65 75.3139 417.527 75.5331C429.586 80.0277 439.781 69.723 439.781 69.723L435.725 48.127L416.541 65.7765L413.8 68.1883Z" fill="#FFAA8C"/>
<path d="M413.801 68.1884L415.007 74.4371C415.884 74.8756 416.651 75.3141 417.528 75.5333C426.079 70.1617 430.902 59.1992 430.902 59.1992L416.432 65.7767L413.801 68.1884Z" fill="#D0886F"/>
<path d="M400.754 41.9878C400.754 41.9878 396.369 38.4798 395.163 43.084C393.957 47.6883 397.136 55.8005 402.179 53.3888L400.754 41.9878Z" fill="#FFAA8C"/>
<path d="M399.767 57.4448C399.767 57.4448 402.179 70.3806 415.553 67.7496C428.927 65.2282 435.943 52.9502 436.382 52.4021L436.053 49.6615L434.189 35.4103L433.203 27.8462C433.203 27.8462 432.326 14.0335 418.952 13.9238C409.195 13.9238 400.644 17.1029 397.136 22.9131C397.027 23.1323 396.917 23.2419 396.807 23.4612C395.711 25.4344 395.273 27.7365 395.492 30.2579L397.684 43.8514L398.232 47.1401L399.767 57.4448Z" fill="#FFAA8C"/>
<path d="M420.377 29.0519C419.938 30.6963 418.404 31.6829 416.759 31.354C415.773 31.1348 414.676 30.9155 413.58 30.9155C411.936 30.9155 410.73 29.4904 410.84 27.846C410.73 27.846 416.869 26.0921 420.377 29.0519Z" fill="#35252F"/>
<path d="M396.15 33.6562C397.137 35.0813 399 35.4102 400.426 34.4236C401.193 33.8754 402.18 33.3273 403.276 32.8888C404.811 32.2311 405.468 30.4771 404.701 29.0519C404.701 28.9423 398.343 29.6001 396.15 33.6562Z" fill="#35252F"/>
<path d="M397.001 23.1754C399.019 22.0558 400.7 22.3917 404.287 23.2873C409.556 24.5189 414.6 21.608 418.859 18.2492C423.231 14.8904 426.706 17.8013 425.473 20.2644C424.24 22.8395 424.8 24.6309 427.154 27.094C429.508 29.5571 424.576 31.9082 427.827 33.5876C429.172 34.2594 429.396 35.7148 429.172 37.1703C428.948 38.7378 430.405 39.9693 431.862 39.4095C433.32 38.7378 435.001 35.4909 435.001 35.4909L433.992 27.7657C433.992 27.7657 433.095 13.6588 419.42 13.5469C409.443 13.5469 400.7 16.7937 397.113 22.7276C397.225 22.8395 397.113 22.9515 397.001 23.1754Z" fill="#222131"/>
<path d="M420.052 43.0594C417.673 43.5113 415.598 43.1062 415.417 42.1545C415.236 41.2029 417.018 40.0651 419.397 39.6132C421.776 39.1613 423.852 39.5664 424.032 40.518C424.213 41.4697 422.431 42.6075 420.052 43.0594Z" fill="#FD9983"/>
<path d="M398.122 47.14C398.451 47.14 398.78 47.0303 399.219 47.0303C401.63 46.5918 403.384 45.4956 403.165 44.509C402.946 43.5224 400.863 43.1935 398.561 43.632C398.232 43.7416 397.903 43.7416 397.684 43.8512L398.122 47.14Z" fill="#FD9983"/>
<path d="M415.471 39.3102C414.757 39.4458 413.977 38.4949 413.729 37.1864C413.48 35.8779 413.857 34.7072 414.571 34.5716C415.285 34.4361 416.065 35.3869 416.313 36.6955C416.562 38.004 416.185 39.1747 415.471 39.3102Z" fill="#35252F"/>
<path d="M402.525 41.7184C401.811 41.854 401.031 40.9031 400.782 39.5946C400.534 38.2861 400.911 37.1154 401.625 36.9798C402.338 36.8443 403.118 37.7951 403.367 39.1037C403.616 40.4122 403.238 41.5829 402.525 41.7184Z" fill="#35252F"/>
<path d="M408.647 51.3069C413.361 50.4299 416.43 45.6064 416.54 45.6064C416.65 45.3871 416.65 45.0583 416.321 44.839C416.101 44.7294 415.773 44.7294 415.553 45.0583C415.334 45.3871 410.511 52.732 403.933 49.6625C403.714 49.5529 403.385 49.6625 403.166 49.8817C403.056 50.101 403.166 50.4299 403.385 50.6491C405.358 51.5261 407.112 51.6357 408.647 51.3069Z" fill="#35252F"/>
<path d="M431.229 47.9082C431.339 48.0178 433.751 51.6354 436.382 52.2932L436.053 49.5526C436.053 49.6622 433.86 49.6622 431.229 47.9082Z" fill="#35252F"/>
<path d="M431.887 38.5906C431.887 38.5906 435.724 30.6976 440.548 35.4114C444.494 39.3579 440.877 52.0744 433.97 49.2242L431.887 38.5906Z" fill="#FFAA8C"/>
<path d="M434.19 47.0298C434.409 47.0298 434.628 46.701 434.628 46.4817C434.19 41.1101 438.246 38.4791 438.465 38.3695C438.684 38.2598 438.794 37.8213 438.575 37.6021C438.465 37.3828 438.136 37.2732 437.807 37.3829C437.588 37.4925 433.094 40.4523 433.532 46.4817C433.642 46.8106 433.861 47.0298 434.19 47.0298Z" fill="#35252F"/>
<path d="M438.575 42.8651C438.685 42.8651 438.904 42.7555 438.904 42.5363C439.014 42.317 438.904 41.9881 438.685 41.7689C438.466 41.6593 436.273 40.4534 434.739 41.2208C434.519 41.3304 434.3 41.6593 434.519 41.9881C434.629 42.2074 434.958 42.4266 435.287 42.2074C436.164 41.7689 437.698 42.4266 438.247 42.7555C438.356 42.8651 438.466 42.8651 438.575 42.8651Z" fill="#35252F"/>
<path d="M389.353 42.0965L397.246 40.8906L397.465 41.9869L389.572 43.1927C389.243 43.1927 389.024 43.0831 388.914 42.7542C388.805 42.4254 389.024 42.2061 389.353 42.0965Z" fill="#605CFF"/>
<path d="M420.267 45.3864C425.31 44.3998 428.709 39.5763 427.722 34.4239C426.735 29.3812 421.912 25.9828 416.759 26.9694C411.717 27.9561 408.318 32.7796 409.305 37.9319C410.292 43.0843 415.225 46.373 420.267 45.3864ZM416.979 28.1753C421.473 27.2983 425.749 30.2582 426.626 34.7528C427.503 39.2474 424.543 43.5228 420.048 44.3998C415.554 45.2768 411.278 42.3169 410.401 37.8223C409.634 33.3277 412.594 29.0523 416.979 28.1753Z" fill="#605CFF"/>
<path d="M398.561 49.5524C403.604 48.5658 407.003 43.7423 406.016 38.5899C405.029 33.5472 400.206 30.1488 395.053 31.1355C390.011 32.1221 386.612 36.9456 387.599 42.0979C388.695 47.1407 393.519 50.539 398.561 49.5524ZM395.382 32.2317C399.877 31.3547 404.152 34.3146 405.029 38.8092C405.906 43.3038 402.946 47.5792 398.452 48.4562C393.957 49.3332 389.682 46.3733 388.805 41.8787C387.928 37.3841 390.888 33.1087 395.382 32.2317Z" fill="#605CFF"/>
<path d="M438.903 34.315C439.013 34.315 439.013 34.315 439.123 34.2054C439.342 34.0958 439.451 33.6573 439.342 33.438C435.724 27.6279 426.735 32.6707 426.625 32.6707C426.406 32.7803 426.296 33.1092 426.406 33.438C426.516 33.6573 426.845 33.7669 427.173 33.6573C427.283 33.6573 435.286 29.0531 438.355 33.9862C438.465 34.315 438.684 34.4247 438.903 34.315Z" fill="#605CFF"/>
<path d="M409.634 44.619C409.963 44.5094 410.072 44.2901 410.072 43.9612C409.963 43.6324 409.743 43.5227 409.415 43.5227C407.441 43.8516 406.345 43.0842 406.016 42.6457C407.332 37.9319 408.538 33.1084 408.538 32.9988C408.647 32.6699 408.428 32.4506 408.099 32.341C407.77 32.2314 407.551 32.4506 407.441 32.7795C407.441 32.7795 406.126 37.8223 404.81 42.6457C404.81 42.7554 404.81 42.9746 404.92 43.0842C405.03 43.3035 406.455 45.2767 409.634 44.619Z" fill="#35252F"/>
<path d="M405.14 37.2744C405.249 37.2744 405.359 37.1648 405.468 37.0552C406.674 35.1915 409.196 36.0685 409.196 36.0685C409.525 36.1782 409.853 36.0685 409.853 35.7397C409.963 35.4108 409.853 35.0819 409.525 35.0819C408.319 34.6434 405.797 34.4242 404.482 36.3974C404.263 36.6167 404.372 36.9455 404.591 37.1648C404.92 37.2744 405.03 37.384 405.14 37.2744Z" fill="#605BFF"/>
<path d="M438.357 62.3775C438.357 62.3775 447.456 62.1582 449.319 70.8186L443.838 82.9869C443.838 82.9869 438.686 75.9709 426.627 76.4094C426.517 76.4094 435.507 69.7223 438.357 62.3775Z" fill="white"/>
<path d="M419.721 76.1908C419.721 76.1908 415.226 74.4368 414.02 69.6133C414.02 69.6133 406.018 74.2175 406.127 81.5624L413.472 85.18C413.582 85.2896 416.103 78.8218 419.721 76.1908Z" fill="white"/>
<path d="M500.184 222.212C500.184 222.212 514.216 277.682 441.425 277.682C402.508 277.682 383.982 273.955 383.982 273.955C383.982 273.955 382.995 308.268 381.241 322.848C379.378 337.318 373.019 373.494 373.019 373.494L342.324 375.906C342.324 375.906 337.391 250.167 356.247 238.546C374.993 226.926 402.07 226.597 448.441 222.212C448.441 221.993 490.099 214.977 500.184 222.212Z" fill="#222131"/>
<path d="M368.853 363.298C368.744 363.298 368.744 363.298 368.634 363.298C368.196 363.189 367.867 362.75 367.976 362.312C372.252 344.662 373.896 319.229 375.212 298.949C376.527 278.887 377.294 268.363 379.377 266.5C381.679 264.417 388.476 265.184 399.768 266.39C413.8 267.925 434.957 270.117 457.759 267.486C469.05 266.171 477.82 261.786 483.63 254.331C494.045 240.957 491.633 222.211 491.633 221.992C491.523 221.554 491.852 221.115 492.4 221.005C492.839 220.896 493.277 221.225 493.387 221.773C493.497 222.54 495.908 241.396 485.056 255.318C478.917 263.101 469.927 267.815 458.088 269.131C435.067 271.762 413.8 269.46 399.768 268.034C390.011 267.048 382.337 266.171 380.583 267.706C380.145 268.034 379.377 269.788 378.61 277.352C378.062 282.943 377.514 290.398 376.966 299.058C375.65 319.448 373.896 344.881 369.621 362.75C369.621 363.079 369.182 363.298 368.853 363.298Z" fill="#F1F4FA"/>
<path d="M342.763 365.821C342.324 365.821 341.995 365.492 341.886 365.053C341.886 364.615 342.215 364.176 342.653 364.176L374.006 362.312C374.444 362.312 374.883 362.641 374.883 363.08C374.883 363.518 374.554 363.957 374.115 363.957L342.763 365.821Z" fill="#F1F4FA"/>
<path d="M449.319 95.0473L449.209 97.2398L449.1 99.5419C448.99 101.077 448.881 102.721 448.771 104.256C448.442 107.435 448.223 110.504 447.784 113.684C447.565 115.218 447.455 116.863 447.236 118.397C447.017 119.932 446.798 121.467 446.578 123.111C446.14 126.181 445.592 129.25 445.044 132.32C444.496 135.389 443.838 138.349 443.18 141.309C442.851 142.734 442.413 144.269 442.084 145.694C441.645 147.119 441.316 148.544 440.878 149.86C440.001 152.6 439.014 155.231 438.028 157.753C436.931 160.164 435.835 162.466 434.629 164.33C433.423 166.194 432.218 167.619 431.231 168.496C430.792 168.934 430.354 169.263 430.025 169.373L429.915 169.482H429.806C429.587 169.592 429.258 169.702 429.038 169.811L428.6 170.031L428.161 170.25C427.833 170.359 427.613 170.469 427.284 170.579C426.079 171.017 424.763 171.456 423.448 171.894C422.132 172.333 420.707 172.662 419.172 172.99C416.212 173.758 413.252 174.416 410.183 174.964C407.114 175.512 403.934 176.17 400.755 176.608C399.221 176.827 397.576 177.156 396.041 177.375C394.397 177.595 392.862 177.924 391.218 178.143C388.039 178.581 384.75 179.02 381.571 179.458L371.924 180.664H371.595C365.127 181.541 360.633 187.461 361.4 193.819C362.167 199.52 366.881 203.795 372.472 204.014L373.788 204.124H375.103C375.98 204.124 376.857 204.234 377.734 204.234C379.488 204.234 381.132 204.343 382.886 204.343C386.285 204.343 389.793 204.343 393.191 204.234C394.945 204.234 396.699 204.124 398.344 204.014C400.098 203.905 401.852 203.795 403.606 203.685C407.114 203.466 410.621 203.247 414.129 202.808C417.637 202.37 421.255 201.931 424.873 201.383C428.49 200.726 432.218 199.958 436.164 198.862C436.712 198.752 437.151 198.533 437.699 198.423L438.466 198.204L439.234 197.985C439.782 197.766 440.33 197.656 440.768 197.437H440.878H440.988L441.207 197.327L441.755 197.108C442.084 196.998 442.413 196.779 442.742 196.669C445.373 195.464 447.894 193.929 449.977 192.284C454.252 188.996 457.322 185.268 459.953 181.541C462.474 177.814 464.447 174.196 466.201 170.579C467.846 166.961 469.271 163.343 470.477 159.726C471.134 157.972 471.682 156.108 472.231 154.354C472.779 152.6 473.217 150.737 473.656 148.983C474.533 145.475 475.41 141.857 476.067 138.349C476.725 134.841 477.383 131.333 477.931 127.825C478.15 126.071 478.479 124.317 478.698 122.563C478.918 120.809 479.137 119.055 479.356 117.301C479.685 113.793 480.014 110.285 480.233 106.777C480.343 105.023 480.452 103.269 480.562 101.515L480.672 98.8842V97.5687V96.0339C480.891 87.3736 473.985 80.248 465.324 80.0287C456.883 79.9191 449.867 86.3869 449.429 94.7184L449.319 95.0473Z" fill="#FFAA8C"/>
<path d="M376.528 178.691C376.528 178.691 380.584 191.736 378.063 202.26C376.528 203.356 374.116 203.904 372.253 203.466C372.253 203.466 374.774 191.846 370.718 178.691C372.582 177.923 374.555 177.923 376.528 178.691Z" fill="#222131"/>
<path d="M376.199 202.151C372.082 202.151 368.744 198.814 368.744 194.697C368.744 190.58 372.082 187.242 376.199 187.242C380.316 187.242 383.653 190.58 383.653 194.697C383.653 198.814 380.316 202.151 376.199 202.151Z" fill="#222131"/>
<path d="M376.528 199.958C379.487 199.739 381.68 197.217 381.57 194.258C381.351 191.298 378.83 189.105 375.87 189.215C372.91 189.434 370.717 191.956 370.827 194.915C371.046 197.875 373.677 200.177 376.528 199.958Z" fill="white"/>
<path d="M443.838 178.253C443.947 178.253 444.057 178.253 444.167 178.143C444.386 177.924 444.386 177.595 444.167 177.376C439.343 172.004 431.669 168.715 431.341 168.606C431.012 168.496 430.792 168.606 430.573 168.934C430.464 169.263 430.573 169.483 430.902 169.702C431.012 169.702 438.685 172.991 443.29 178.253C443.509 178.253 443.618 178.253 443.838 178.253Z" fill="#D0886F"/>
<path d="M442.631 171.346C442.851 171.346 443.07 171.127 443.179 170.908C443.289 170.579 443.07 170.36 442.741 170.25C442.522 170.14 436.383 168.825 432.217 169.044C431.888 169.044 431.669 169.373 431.669 169.592C431.669 169.921 431.998 170.14 432.217 170.14C436.164 169.921 442.412 171.346 442.412 171.346C442.631 171.346 442.631 171.346 442.631 171.346Z" fill="#D0886F"/>
<path d="M484.288 97.3494C484.178 104.694 482.096 130.346 478.039 143.94L442.411 137.362C442.411 137.362 446.577 109.518 448.112 92.197C448.55 86.6061 451.51 81.4538 456.224 78.2747C459.403 76.1918 463.569 74.7667 468.721 75.7533C479.026 77.7265 482.644 87.4831 483.85 92.4163C484.178 94.1702 484.288 95.705 484.288 97.3494Z" fill="#FF69B4"/>
<path d="M478.04 144.488C478.259 144.488 478.479 144.378 478.588 144.159C485.166 123.44 484.618 102.611 484.618 102.392C484.618 102.063 484.398 101.844 484.07 101.844C483.741 101.844 483.521 102.063 483.521 102.392C483.521 102.611 484.07 123.221 477.492 143.83C477.382 144.159 477.602 144.378 477.821 144.488C477.931 144.488 477.931 144.488 478.04 144.488Z" fill="white"/>
<path d="M442.412 137.91C442.632 137.91 442.851 137.69 442.96 137.471C445.043 125.632 447.894 99.5411 447.894 99.3218C447.894 98.9929 447.674 98.7737 447.455 98.6641C447.126 98.6641 446.907 98.8833 446.797 99.1026C446.797 99.3218 443.947 125.412 441.864 137.142C441.755 137.581 441.974 137.91 442.412 137.91C442.303 137.91 442.412 137.91 442.412 137.91Z" fill="white"/>
<path d="M497.114 355.187H398.78C396.478 355.187 394.614 353.323 394.614 351.021C394.614 348.719 396.478 346.855 398.78 346.855H497.114C499.416 346.855 501.279 348.719 501.279 351.021C501.279 353.323 499.416 355.187 497.114 355.187Z" fill="#788B9A"/>
<path d="M389.682 418.769C389.462 418.769 389.353 418.769 389.134 418.769C386.831 418.44 385.297 416.357 385.516 414.055L403.494 280.313C403.823 278.23 405.577 276.695 407.66 276.695H487.905C489.988 276.695 491.742 278.23 492.071 280.313L509.721 414.165C510.05 416.467 508.405 418.55 506.103 418.879C503.801 419.207 501.718 417.563 501.389 415.261L484.178 285.136H411.168L393.738 415.371C393.519 417.344 391.765 418.769 389.682 418.769Z" fill="#788B9A"/>
<path d="M430.901 280.86H483.082C499.636 280.86 517.285 271.871 519.807 255.537C523.205 233.722 524.082 212.564 523.095 193.161C521.999 171.236 510.817 150.845 493.497 137.252C493.497 137.252 506.432 203.685 497.005 245.232C491.523 268.911 430.901 280.86 430.901 280.86Z" fill="#788B9A"/>
<path d="M294.419 205.328H420.159C420.488 205.328 420.707 205.109 420.707 204.78C420.707 200.833 417.528 197.764 413.691 197.764H294.529C294.2 197.764 293.981 197.983 293.981 198.312V204.889C293.871 205.109 294.2 205.328 294.419 205.328Z" fill="#788B9A"/>
<path d="M252.097 135.37L267.773 201.803C268.212 203.557 269.747 204.872 271.61 204.872H368.299C370.821 204.872 372.684 202.461 372.136 200.049L356.46 133.616C356.021 131.862 354.487 130.547 352.623 130.547H255.934C253.413 130.547 251.549 132.959 252.097 135.37Z" fill="#788B9A"/>
<path d="M302.979 167.975C303.966 173.237 309.008 177.402 314.161 177.402C319.313 177.402 322.821 173.127 321.835 167.975C320.848 162.713 315.805 158.547 310.653 158.547C305.501 158.547 301.993 162.713 302.979 167.975Z" fill="white"/>
<path d="M349.122 131.002L365.785 205.218H368.635C371.157 205.218 373.02 202.806 372.472 200.395L356.796 133.962C356.357 132.208 354.823 130.893 352.959 130.893H349.122V131.002Z" fill="#788B9A"/>
<path d="M158.704 210.59V215.743C158.704 218.703 161.225 221.114 164.295 221.114H549.845C552.914 221.114 555.436 218.703 555.436 215.743V210.59C555.436 207.63 552.914 205.219 549.845 205.219H164.295C161.115 205.219 158.704 207.63 158.704 210.59Z" fill="#605BFF"/>
<path d="M179.971 234.159H522.987C530.003 234.159 535.594 228.458 535.594 221.552V221.004H167.255V221.552C167.364 228.458 172.955 234.159 179.971 234.159Z" fill="#605BFF"/>
<path d="M174.49 299.277H523.426V308.376H174.49V299.277Z" fill="#605BFF"/>
<path d="M540.088 420.413L495.142 234.16H510.928L555.874 420.413H540.088Z" fill="#605BFF"/>
<path d="M159.8 420.413L204.746 234.16H188.96L144.014 420.413H159.8Z" fill="#605BFF"/>
<path d="M158.594 213.111H555.326V215.413H158.594V213.111Z" fill="#1B48CA"/>
<path d="M520.072 162.329L524.948 163.076L519.305 199.92L514.429 199.173L520.072 162.329Z" fill="#605CFF"/>
<path d="M520.076 162.357L524.899 163.124L523.803 159.397L523.255 157.424L522.159 159.068L520.076 162.357Z" fill="#FF8C64"/>
<path d="M514.816 196.55L519.692 197.297L519.277 200.006L514.401 199.259L514.816 196.55Z" fill="#35252F"/>
<path d="M514.375 201.384L518.651 202.042C518.87 202.042 518.98 201.932 518.98 201.713L519.309 199.849L514.375 199.082L514.047 200.946C514.047 201.165 514.156 201.384 514.375 201.384Z" fill="#EF452F"/>
<path d="M522.159 159.068L523.804 159.397L523.256 157.424L522.159 159.068Z" fill="#35252F"/>
<path d="M519.679 197.302L514.803 196.555L515.101 194.604L519.978 195.351L519.679 197.302Z" fill="#F68407"/>
<path d="M523.474 164.769L519.308 192.065C519.308 192.284 519.089 192.394 518.869 192.394C518.65 192.394 518.541 192.175 518.541 191.956L522.706 164.659C522.706 164.44 522.925 164.33 523.145 164.33C523.364 164.33 523.474 164.549 523.474 164.769Z" fill="#605CFF"/>
<path d="M521.501 164.44L517.335 191.737C517.335 191.956 517.116 192.066 516.897 192.066C516.678 192.066 516.568 191.847 516.568 191.627L520.734 164.331C520.734 164.112 520.953 164.002 521.172 164.002C521.391 164.002 521.501 164.221 521.501 164.44Z" fill="#605CFF"/>
<path d="M511.254 162.459L516.188 162.475L516.066 199.747L511.133 199.731L511.254 162.459Z" fill="#2FE6A7"/>
<path d="M511.196 162.465L516.129 162.575L514.485 158.957L513.717 157.203L512.84 158.957L511.196 162.465Z" fill="#FF8C64"/>
<path d="M511.088 197.099L516.021 197.115L516.013 199.856L511.079 199.84L511.088 197.099Z" fill="#35252F"/>
<path d="M511.414 201.931H515.69C515.909 201.931 516.019 201.821 516.019 201.602V199.738H511.085V201.602C511.085 201.821 511.195 201.931 511.414 201.931Z" fill="#EF452F"/>
<path d="M512.839 158.957H514.483L513.716 157.203L512.839 158.957Z" fill="#35252F"/>
<path d="M516.023 197.116L511.09 197.1L511.096 195.126L516.029 195.142L516.023 197.116Z" fill="#3C7341"/>
<path d="M514.924 164.329L514.814 191.954C514.814 192.174 514.595 192.283 514.485 192.283C514.266 192.283 514.156 192.064 514.156 191.954L514.266 164.329C514.266 164.11 514.485 164 514.595 164C514.705 164 514.924 164.11 514.924 164.329Z" fill="#2FE6A7"/>
<path d="M512.949 164.331L512.84 191.956C512.84 192.176 512.62 192.285 512.511 192.285C512.291 192.285 512.182 192.066 512.182 191.956L512.291 164.331C512.291 164.112 512.511 164.002 512.62 164.002C512.84 164.002 512.949 164.112 512.949 164.331Z" fill="#2FE6A7"/>
<path d="M502.664 163.026L507.548 162.332L512.792 199.235L507.908 199.93L502.664 163.026Z" fill="#222131"/>
<path d="M502.646 163.015L507.579 162.357L505.496 159.068L504.4 157.424L503.742 159.287L502.646 163.015Z" fill="#FF8C64"/>
<path d="M507.51 197.28L512.395 196.586L512.78 199.299L507.896 199.994L507.51 197.28Z" fill="#35252F"/>
<path d="M508.566 202.042L512.841 201.384C513.06 201.384 513.17 201.165 513.17 201.055L512.951 199.191L508.018 199.849L508.237 201.713C508.237 201.932 508.346 202.042 508.566 202.042Z" fill="#EF452F"/>
<path d="M503.742 159.287L505.496 159.068L504.4 157.424L503.742 159.287Z" fill="#35252F"/>
<path d="M512.427 196.507L507.543 197.201L507.265 195.247L512.15 194.553L512.427 196.507Z" fill="#1B48CA"/>
<path d="M506.593 164.331L510.43 191.627C510.43 191.847 510.32 192.066 510.101 192.066C509.882 192.066 509.662 191.956 509.662 191.737L505.825 164.44C505.825 164.221 505.935 164.002 506.154 164.002C506.374 164.002 506.593 164.112 506.593 164.331Z" fill="#222131"/>
<path d="M504.729 164.659L508.565 191.955C508.565 192.175 508.456 192.394 508.237 192.394C508.017 192.394 507.798 192.284 507.798 192.065L503.961 164.768C503.961 164.549 504.071 164.33 504.29 164.33C504.509 164.22 504.619 164.44 504.729 164.659Z" fill="#222131"/>
<path d="M501.001 177.266L501.329 179.239L501.549 181.102L501.878 183.843L502.097 185.597L502.535 188.447L502.755 190.201L503.083 192.942L503.303 194.696L503.632 197.546L503.851 199.3L504.289 202.15L504.509 203.795L504.728 205.33H524.131L524.351 203.795L524.57 202.15L524.899 199.3L525.118 197.546L525.447 194.696L525.666 192.942L526.105 190.201L526.324 188.447L526.653 185.597L526.872 183.843L527.201 181.102L527.42 179.239L527.749 177.266H501.001Z" fill="#FF69B4"/>
<path d="M501.33 179.238L501.549 181.102H527.202L527.421 179.238H501.33Z" fill="#FF2290"/>
<path d="M501.878 183.844L502.097 185.598H526.653L526.872 183.844H501.878Z" fill="#FF2290"/>
<path d="M502.536 188.445L502.755 190.199H526.105L526.324 188.445H502.536Z" fill="#FF2290"/>
<path d="M503.084 192.941L503.304 194.695H525.448L525.667 192.941H503.084Z" fill="#FF2290"/>
<path d="M503.633 197.545L503.852 199.299H524.9L525.119 197.545H503.633Z" fill="#FF2290"/>
<path d="M504.291 202.148L504.51 203.793H524.352L524.571 202.148H504.291Z" fill="#FF2290"/>
<path d="M176.573 176.607H218.56V182.637H176.573V176.607Z" fill="#FAB623"/>
<path d="M175.915 200.286C180.191 205.329 192.359 205.439 196.306 205.329C197.073 205.329 197.511 205.329 197.511 205.329C197.511 205.329 213.955 206.425 219.108 200.286C221.958 196.778 220.423 191.626 218.45 187.789C218.011 186.912 217.463 186.035 217.025 185.268C216.038 183.623 215.271 182.637 215.271 182.637H179.752C179.752 182.637 178.108 184.829 176.573 187.679C174.71 191.626 173.065 196.778 175.915 200.286Z" fill="#FAB623"/>
<path d="M211.105 195.572C212.859 201.163 206.281 205.439 197.511 205.219C197.511 205.219 213.955 206.316 219.108 200.177C221.958 196.669 220.423 191.516 218.45 187.679C218.45 187.57 218.34 187.46 218.34 187.46C218.34 187.351 218.231 187.241 218.231 187.241C217.902 186.583 217.463 185.925 217.134 185.268C216.148 183.623 215.38 182.637 215.38 182.637H179.862C179.862 182.637 178.218 184.829 176.683 187.679H192.578C196.525 187.679 200.471 188.447 204.199 189.872C207.268 191.187 210.338 193.051 211.105 195.572Z" fill="#F68407"/>
<path d="M182.712 171.236C183.15 172.003 183.698 172.661 184.137 173.209C185.562 175.182 186.768 176.498 186.877 176.607H208.254C208.364 176.498 209.46 175.182 210.995 173.209C211.433 172.551 211.981 171.894 212.42 171.236C215.051 167.289 217.792 162.027 217.024 158.081C216.805 156.875 216.476 155.998 215.928 155.45C215.709 155.121 215.489 154.902 215.161 154.792C212.858 153.477 209.35 156.546 208.254 156.436C206.719 156.327 209.241 148.763 212.749 143.391C216.038 138.348 218.12 131.771 214.174 129.359C214.064 129.25 213.845 129.14 213.735 129.14C213.626 129.03 213.407 129.03 213.297 128.921C208.145 127.057 206.281 133.963 204.088 132.977C201.896 131.99 208.583 109.736 198.169 109.736C198.059 109.736 197.84 109.736 197.621 109.736C197.401 109.736 197.292 109.736 197.073 109.736C186.658 109.736 193.345 132.1 191.153 132.977C188.96 133.963 187.206 126.947 181.944 128.921C181.835 129.03 181.615 129.03 181.506 129.14C181.396 129.25 181.177 129.25 181.067 129.359C177.011 131.771 179.204 138.458 182.492 143.391C186 148.763 188.412 156.217 186.987 156.436C185.891 156.546 182.383 153.367 180.081 154.792C179.861 154.902 179.533 155.121 179.313 155.45C178.875 155.998 178.546 156.875 178.217 158.081C177.34 162.027 180.081 167.289 182.712 171.236Z" fill="#4F9D5C"/>
<path d="M197.072 109.738V176.609H198.059V109.738C197.949 109.738 197.73 109.738 197.51 109.738C197.401 109.738 197.182 109.738 197.072 109.738Z" fill="#3C7341"/>
<path d="M197.182 148.106L197.511 148.435L197.84 148.763L197.95 148.654L214.394 129.689L213.955 129.36C213.845 129.25 213.626 129.141 213.517 129.141L197.95 147.119L197.402 147.667L197.182 148.106Z" fill="#3C7341"/>
<path d="M197.181 175.512L197.51 175.841L197.839 176.17L197.949 176.06L215.817 155.451C215.598 155.122 215.379 154.903 215.05 154.793L197.949 174.525L197.4 175.074L197.181 175.512Z" fill="#3C7341"/>
<path d="M180.63 129.579L197.073 148.544L197.183 148.654L197.512 148.325L197.841 147.996L197.512 147.558L196.964 147.01L181.397 129.031C181.287 129.141 181.068 129.141 180.959 129.25L180.63 129.579Z" fill="#3C7341"/>
<path d="M179.094 155.339L196.963 175.949L197.073 176.058L197.402 175.73L197.73 175.401L197.402 174.962L196.853 174.414L179.752 154.682C179.642 154.901 179.423 155.12 179.094 155.339Z" fill="#3C7341"/>
<path opacity="0.2" d="M619.675 423.812C589.584 423.812 565.191 421.898 565.191 419.537C565.191 417.176 589.584 415.262 619.675 415.262C649.765 415.262 674.158 417.176 674.158 419.537C674.158 421.898 649.765 423.812 619.675 423.812Z" fill="#605CFF"/>
<path d="M580.648 400.902L572.207 274.285H669.883L661.332 400.902H580.648Z" fill="#EF452F"/>
<path d="M572.975 286.233L668.677 291.714L669.335 281.738H572.646L572.975 286.233Z" fill="#AD2F24"/>
<path d="M568.918 281.738H673.061C674.487 281.738 675.692 280.532 675.692 279.107V273.297C675.692 271.872 674.487 270.666 673.061 270.666H568.918C567.493 270.666 566.287 271.872 566.287 273.297V279.107C566.287 280.532 567.493 281.738 568.918 281.738Z" fill="#EF5F44"/>
<path d="M583.169 302.02L585.581 344.335H656.508L658.92 302.02H583.169Z" fill="#AD2F24"/>
<path d="M620.99 328.438C619.053 328.438 617.482 326.867 617.482 324.93C617.482 322.992 619.053 321.422 620.99 321.422C622.927 321.422 624.498 322.992 624.498 324.93C624.498 326.867 622.927 328.438 620.99 328.438Z" fill="#EF452F"/>
<path d="M586.458 354.311L588.65 392.789H653.329L655.521 354.311H586.458Z" fill="#AD2F24"/>
<path d="M620.99 378.428C619.053 378.428 617.482 376.857 617.482 374.92C617.482 372.983 619.053 371.412 620.99 371.412C622.927 371.412 624.498 372.983 624.498 374.92C624.498 376.857 622.927 378.428 620.99 378.428Z" fill="#EF452F"/>
<path d="M631.404 400.9C631.624 400.9 631.843 400.9 631.953 400.9C641.709 401.01 650.15 407.807 652.343 417.125L653.001 419.756H660.565L661.332 400.9H631.404Z" fill="#AD2F24"/>
<path d="M610.576 400.9C610.357 400.9 610.138 400.9 610.028 400.9C600.271 401.01 591.83 407.807 589.638 417.125L588.98 419.756H581.416L580.649 400.9H610.576Z" fill="#AD2F24"/>
<path d="M640.503 207.413C640.503 207.413 649.054 209.825 658.482 197.656C665.278 188.777 677.337 169.921 694 169.592C694 169.592 674.268 161.042 656.837 169.702C639.297 178.472 629.979 201.055 640.503 207.413Z" fill="#2FE6A7"/>
<path d="M635.352 242.712C635.571 242.712 635.79 242.492 635.79 242.273C635.79 242.163 635.242 230.324 637.544 216.95C639.737 204.562 644.779 188.338 656.948 180.774C657.167 180.664 657.276 180.335 657.057 180.116C656.948 179.897 656.619 179.787 656.4 180.006C650.918 183.405 646.424 188.776 642.916 196.121C640.175 201.931 637.983 208.838 636.667 216.84C634.255 230.324 634.913 242.273 634.913 242.383C634.913 242.492 635.132 242.712 635.352 242.712Z" fill="#222131"/>
<path d="M633.927 180.445C633.927 180.445 625.266 178.472 622.964 163.124C621.32 152.052 619.895 129.689 605.534 121.357C605.534 121.357 627.02 123.44 637.983 139.555C648.945 155.67 646.204 180.007 633.927 180.445Z" fill="#2FE6A7"/>
<path d="M622.087 243.699C622.306 243.699 622.416 243.59 622.526 243.37C622.635 243.261 628.336 227.475 632.502 208.071C634.913 196.67 636.448 186.256 636.777 177.047C637.325 165.537 636.119 155.999 633.379 148.764C633.269 148.545 633.05 148.435 632.83 148.545C632.611 148.655 632.502 148.874 632.611 149.093C638.75 165.427 635.461 190.093 631.625 207.852C627.459 227.256 621.758 242.932 621.758 243.041C621.649 243.261 621.758 243.59 621.978 243.59C621.978 243.699 621.978 243.699 622.087 243.699Z" fill="#222131"/>
<path d="M618.797 187.9C618.797 187.9 610.027 189.106 602.353 175.622C596.872 165.865 587.554 145.585 571.11 142.844C571.11 142.844 591.939 137.144 607.944 148.216C624.059 159.507 630.088 183.076 618.797 187.9Z" fill="#2FE6A7"/>
<path d="M617.482 243.698C617.701 243.698 617.92 243.589 617.92 243.369C617.92 243.26 620.88 228.351 620.88 210.592C620.88 200.177 620.003 190.75 618.139 182.637C615.837 172.552 612 164.44 606.848 158.52C606.629 158.301 606.409 158.301 606.19 158.52C605.971 158.739 605.971 158.958 606.19 159.178C617.701 172.223 620.113 194.258 620.003 210.592C619.893 228.241 617.043 243.041 617.043 243.15C616.933 243.369 617.153 243.589 617.482 243.698C617.372 243.698 617.482 243.698 617.482 243.698Z" fill="#222131"/>
<path d="M603.669 208.51C603.669 208.51 595.228 211.47 585.143 199.74C577.798 191.299 564.643 173.211 547.98 173.869C547.98 173.869 567.164 164.112 585.143 171.895C603.121 179.569 613.755 201.604 603.669 208.51Z" fill="#2FE6A7"/>
<path d="M611.891 243.699C612.11 243.699 612.33 243.479 612.33 243.26C612.33 243.151 612.549 232.955 609.479 220.349C607.616 213.004 605.094 206.207 601.806 200.287C597.64 192.833 592.378 186.694 586.129 182.09C585.91 181.98 585.691 181.98 585.472 182.199C585.362 182.418 585.362 182.638 585.581 182.857C599.503 193.271 605.752 209.167 608.602 220.677C611.672 233.175 611.453 243.151 611.453 243.26C611.453 243.479 611.562 243.699 611.891 243.699Z" fill="#222131"/>
<path d="M584.595 254.223C584.595 255.539 584.814 256.854 585.253 258.279C587.007 264.199 592.049 268.584 598.188 269.461C613.097 271.544 628.445 271.434 644.231 269.351C651.137 268.474 656.728 263.212 657.824 256.306C658.043 255.1 658.043 254.004 657.934 252.798C657.605 248.851 655.522 245.015 651.576 241.178H590.953C586.568 245.343 584.595 249.728 584.595 254.223Z" fill="#FFD66B"/>
<path d="M619.017 260.252C638.31 260.252 650.808 256.525 657.824 253.346C658.043 253.236 658.153 253.017 658.043 252.797C657.933 252.578 657.714 252.469 657.495 252.578C650.479 255.648 638.201 259.375 619.017 259.375C605.423 259.375 594.022 257.511 585.142 253.894C584.923 253.784 584.594 253.894 584.594 254.113C584.485 254.332 584.594 254.661 584.814 254.661C593.803 258.388 605.313 260.252 619.017 260.252Z" fill="#F68407"/>
<path d="M40.7472 118.617H47.9824V193.6H40.7472V118.617Z" fill="#F2B441"/>
<path d="M40.6376 122.234V128.702L47.9824 130.895V122.234H40.6376Z" fill="#F28D32"/>
<path d="M4.89883 120.919C31.0991 124.975 57.4091 124.975 83.6094 120.919L64.9732 69.2854C51.1605 66.8736 37.3477 66.8736 23.6446 69.2854L4.89883 120.919Z" fill="#605CFF"/>
<path d="M44.5833 116.972C56.5324 116.972 68.3719 116.315 80.6499 115.109C81.0884 115.109 81.3076 114.67 81.3076 114.341C81.3076 113.903 80.8692 113.684 80.5403 113.684C56.3132 116.205 33.292 116.205 8.18798 113.684C7.74948 113.684 7.42059 113.903 7.42059 114.341C7.42059 114.78 7.63982 115.109 8.07832 115.109C20.5755 116.315 32.6342 116.972 44.5833 116.972Z" fill="#1B48CA"/>
<path d="M70.4547 115.986C70.5643 115.986 70.5643 115.986 70.6739 115.986C71.1124 115.876 71.3317 115.438 71.2221 115.109L59.7115 68.9569C59.6018 68.5184 59.1633 68.2992 58.8344 68.4088C58.3959 68.5184 58.1767 68.9569 58.2863 69.2858L69.7969 115.438C69.7969 115.767 70.1258 115.986 70.4547 115.986Z" fill="#1B48CA"/>
<path d="M18.0528 115.986C18.3816 115.986 18.7105 115.767 18.8201 115.438L30.2211 69.2858C30.3307 68.8473 30.1115 68.5184 29.673 68.4088C29.2345 68.2992 28.9056 68.5184 28.796 68.9569L17.395 115.109C17.2854 115.547 17.5046 115.876 17.9431 115.986C17.9431 115.986 17.9431 115.986 18.0528 115.986Z" fill="#1B48CA"/>
<path d="M44.2541 116.972C44.6926 116.972 45.0215 116.643 45.0215 116.205V68.2986C45.0215 67.8601 44.6926 67.5312 44.2541 67.5312C43.8156 67.5312 43.4867 67.8601 43.4867 68.2986V116.314C43.5963 116.643 43.9252 116.972 44.2541 116.972Z" fill="#1B48CA"/>
<path d="M26.496 186.146V193.601H62.124V186.146L44.2552 181.98L26.496 186.146Z" fill="#605CFF"/>
<path d="M68.9194 183.733H67.6039V181.76L116.387 181.869C118.031 181.869 119.456 182.527 120.553 183.623C121.649 184.72 122.307 186.145 122.307 187.789C122.307 191.078 119.676 193.599 116.387 193.599L67.6039 193.49V191.845H68.9194V183.733Z" fill="#FF69B4"/>
<path d="M68.5922 183.732V191.845L113.319 191.954C115.512 191.954 117.266 190.091 117.266 187.898C117.266 186.802 116.827 185.815 116.06 185.048C115.292 184.281 114.306 183.842 113.209 183.842L68.5922 183.732Z" fill="white"/>
<path d="M68.5915 185.816V187.022L112.222 187.132C112.551 187.132 112.88 186.803 112.88 186.474C112.88 186.145 112.551 185.816 112.222 185.816H68.5915Z" fill="#EAD6BF"/>
<path d="M68.5915 188.885V190.091L112.222 190.2C112.551 190.2 112.88 189.871 112.88 189.543C112.88 189.214 112.551 188.885 112.222 188.885H68.5915Z" fill="#EAD6BF"/>
<path d="M73.3042 172.004H71.9886V170.031L120.772 170.141C122.416 170.141 123.841 170.799 124.937 171.895C126.034 172.991 126.691 174.416 126.691 176.061C126.691 179.349 124.06 181.871 120.772 181.871L71.9886 181.761V180.117H73.3042V172.004Z" fill="#2FE6A7"/>
<path d="M72.976 172.004V180.116L117.703 180.226C119.895 180.226 121.649 178.362 121.649 176.17C121.649 175.073 121.211 174.087 120.444 173.319C119.676 172.552 118.69 172.114 117.593 172.114L72.976 172.004Z" fill="white"/>
<path d="M72.9772 174.088V175.294L116.608 175.403C116.937 175.403 117.266 175.075 117.266 174.746C117.266 174.417 116.937 174.088 116.608 174.088H72.9772Z" fill="#EAD6BF"/>
<path d="M72.9772 177.156V178.362L116.608 178.472C116.937 178.472 117.266 178.143 117.266 177.814C117.266 177.485 116.937 177.156 116.608 177.156H72.9772Z" fill="#EAD6BF"/>
<path d="M64.8637 160.274H63.5483V158.301L112.331 158.41C113.976 158.41 115.401 159.068 116.497 160.164C117.593 161.261 118.251 162.686 118.251 164.33C118.251 167.619 115.62 170.14 112.331 170.14L63.5483 170.031V168.386H64.8637V160.274Z" fill="#605CFF"/>
<path d="M64.5346 160.273V168.386L109.261 168.495C111.454 168.495 113.208 166.632 113.208 164.439C113.208 163.343 112.769 162.356 112.002 161.589C111.235 160.822 110.248 160.383 109.152 160.383L64.5346 160.273Z" fill="white"/>
<path d="M64.5339 162.357V163.563L108.164 163.673C108.493 163.673 108.822 163.344 108.822 163.015C108.822 162.686 108.493 162.357 108.164 162.357H64.5339Z" fill="#EAD6BF"/>
<path d="M64.5339 165.426V166.632L108.164 166.741C108.493 166.741 108.822 166.412 108.822 166.084C108.822 165.755 108.493 165.426 108.164 165.426H64.5339Z" fill="#EAD6BF"/>
<path opacity="0.3" d="M68.591 425.346C30.751 425.346 0.0755463 422.646 0.0755463 419.316C0.0755463 415.987 30.751 413.287 68.591 413.287C106.431 413.287 137.106 415.987 137.106 419.316C137.106 422.646 106.431 425.346 68.591 425.346Z" fill="#605CFF"/>
<path d="M8.84477 198.094L23.7537 419.536H113.536L128.445 198.094H8.84477Z" fill="#FAB623"/>
<path d="M9.83169 212.675L127.02 219.471L127.897 207.193H9.39317L9.83169 212.675Z" fill="#F68407"/>
<path d="M4.35123 207.193H132.941C134.476 207.193 135.682 205.987 135.682 204.452V196.34C135.682 194.805 134.476 193.6 132.941 193.6H4.35123C2.81648 193.6 1.61061 194.805 1.61061 196.34V204.452C1.61061 205.987 2.81648 207.193 4.35123 207.193Z" fill="#EDC85A"/>
<path d="M22.2201 232.188L25.18 283.93H112.112L115.072 232.188H22.2201Z" fill="#F68407"/>
<path d="M68.5906 264.637C66.1688 264.637 64.2056 262.674 64.2056 260.252C64.2056 257.83 66.1688 255.867 68.5906 255.867C71.0124 255.867 72.9756 257.83 72.9756 260.252C72.9756 262.674 71.0124 264.637 68.5906 264.637Z" fill="#FAB623"/>
<path d="M26.2757 296.1L29.0163 343.348H108.275L111.016 296.1H26.2757Z" fill="#F68407"/>
<path d="M68.5906 325.916C66.1688 325.916 64.2056 323.953 64.2056 321.531C64.2056 319.11 66.1688 317.146 68.5906 317.146C71.0124 317.146 72.9756 319.11 72.9756 321.531C72.9756 323.953 71.0124 325.916 68.5906 325.916Z" fill="#FAB623"/>
<path d="M29.7841 355.297L32.3055 398.708H104.987L107.398 355.297H29.7841Z" fill="#F68407"/>
<path d="M68.5906 381.387C66.1688 381.387 64.2056 379.424 64.2056 377.002C64.2056 374.58 66.1688 372.617 68.5906 372.617C71.0124 372.617 72.9756 374.58 72.9756 377.002C72.9756 379.424 71.0124 381.387 68.5906 381.387Z" fill="#FAB623"/>
</svg>
